<svg xmlns="http://www.w3.org/2000/svg" xmlns:xlink="http://www.w3.org/1999/xlink" width="64" height="64" viewBox="0 0 64 64" fill="none">
<path d="M8.33333 61.6666C5.4 61.6666 3 59.2666 3 56.3333L3 8.33333C3 5.4 5.4 3 8.33333 3L56.3333 3C59.2666 3 61.6666 5.4 61.6666 8.33333L61.6666 56.3333C61.6666 59.2666 59.2666 61.6666 56.3333 61.6666L8.33333 61.6666ZM8.33333 9.66662L8.33333 55C8.33333 55.8 8.86664 56.3333 9.66662 56.3333L55 56.3333C55.8 56.3333 56.3333 55.8 56.3333 55L56.3333 9.66662C56.3333 8.86664 55.8 8.33333 55 8.33333L9.66662 8.33333C8.86664 8.33333 8.33333 8.86664 8.33333 9.66662Z"   fill="#010101" >
</path>
<g >
<path     fill="#000000"  d="M31.88 40.84L21.28 40.84L19.52 46L12.32 46L22.68 17.92L30.56 17.92L40.92 46L33.64 46L31.88 40.84ZM30.12 35.64L26.6 25.24L23.04 35.64L30.12 35.64ZM42.92 17.4Q42.92 15.84 44.04 14.82Q45.16 13.8 47 13.8Q48.84 13.8 49.96 14.82Q51.08 15.84 51.08 17.4Q51.08 18.92 49.96 19.94Q48.84 20.96 47 20.96Q45.16 20.96 44.04 19.94Q42.92 18.92 42.92 17.4ZM50.4 23.68L50.4 46L43.56 46L43.56 23.68L50.4 23.68Z">
</path>
</g>
</svg>
