<?xml version="1.0" standalone="no"?><!DOCTYPE svg PUBLIC "-//W3C//DTD SVG 1.1//EN" "http://www.w3.org/Graphics/SVG/1.1/DTD/svg11.dtd"><svg t="1711868950934" class="icon" viewBox="0 0 1024 1024" version="1.1" xmlns="http://www.w3.org/2000/svg" p-id="14006" width="64" height="64" xmlns:xlink="http://www.w3.org/1999/xlink"><path d="M170.666667 426.666667h42.666666a128 128 0 0 0 128-128V256a85.333333 85.333333 0 1 0-170.666666 0v170.666667z m0 85.333333v384a42.666667 42.666667 0 0 1-85.333334 0V256a170.666667 170.666667 0 1 1 341.333334 0v42.666667a213.333333 213.333333 0 0 1-213.333334 213.333333H170.666667z m682.666666-85.333333V256a85.333333 85.333333 0 1 0-170.666666 0v42.666667a128 128 0 0 0 128 128h42.666666z m0 85.333333h-42.666666a213.333333 213.333333 0 0 1-213.333334-213.333333V256a170.666667 170.666667 0 1 1 341.333334 0v640a42.666667 42.666667 0 0 1-85.333334 0v-384z" fill="#1C1C1C" p-id="14007"></path></svg>