<svg xmlns="http://www.w3.org/2000/svg" xmlns:xlink="http://www.w3.org/1999/xlink" width="64" height="64" viewBox="0 0 64 64" fill="none">
<path d="M20.7732 54.5115C17.1336 51.8685 16.0711 46.3153 17.5875 42.2921C20.2168 44.8287 23.8599 45.6322 27.6334 46.0858C33.4588 46.7857 39.1799 46.5239 44.5916 44.4087C45.2106 44.1665 45.7828 43.8446 46.4592 43.5184C46.967 44.6887 47.0991 45.8701 46.9218 47.0726C46.4905 50.0011 44.6559 52.2633 41.738 53.9782C40.5711 54.6641 39.3365 55.2772 38.1314 55.9239C34.4292 57.9118 33.4275 60.2425 34.8187 63.6327C34.8517 63.7158 34.8813 63.7984 34.9561 64C33.0658 63.3277 31.6851 62.3491 30.633 61.0625C29.5218 59.705 28.9932 58.2029 28.9654 56.5777C28.9515 55.7868 28.9515 54.9888 28.8176 54.2091C28.4907 52.3081 27.3673 51.457 25.251 51.408C23.0791 51.3576 21.361 52.4243 20.9054 54.1041C20.8706 54.2329 20.8202 54.3603 20.7697 54.5101L20.7732 54.5115Z"   fill="#17191E" >
</path>
<path d="M0 41.6219C0 41.6219 10.7775 37.4512 21.5852 37.4512L29.7337 17.4178C30.0388 16.449 30.9295 15.7906 31.9352 15.7906C32.9408 15.7906 33.8315 16.449 34.1366 17.4178L42.2853 37.4512C55.0853 37.4512 63.8703 41.6219 63.8703 41.6219C63.8703 41.6219 45.5639 2.00513 45.5281 1.92565C45.0027 0.754363 44.1157 0 42.9198 0L20.9524 0C19.7566 0 18.9054 0.754363 18.3442 1.92565C18.3046 2.00364 0 41.6219 0 41.6219Z"   fill="#17191E" >
</path>
</svg>
