<?xml version="1.0" standalone="no"?><!DOCTYPE svg PUBLIC "-//W3C//DTD SVG 1.1//EN" "http://www.w3.org/Graphics/SVG/1.1/DTD/svg11.dtd"><svg t="1711943174190" class="icon" viewBox="0 0 1024 1024" version="1.1" xmlns="http://www.w3.org/2000/svg" p-id="8931" width="64" height="64" xmlns:xlink="http://www.w3.org/1999/xlink"><path d="M0 3.135755h1020.864245v1020.864245H0z" fill="#0094FF" p-id="8932"></path><path d="M791.484557 323.64289h-165.876829v40.252677h165.876829v-40.252677z m-81.805255 138.286271c-19.476388 0-35.272561 5.68111-47.391921 17.041627-12.11936 11.362219-18.82814 26.780672-20.12804 46.258762h132.445225c-3.894597-42.200826-25.536919-63.300389-64.925264-63.300389z m5.194497 189.899465c13.635343 0 26.833417-3.462431 39.602727-10.388995 12.767609-6.924862 20.99067-16.338932 24.670886-28.240508h71.737832c-21.638919 66.437845-67.843235 99.655066-138.609544 99.655067-46.311506 0-83.154497-14.285294-110.532375-42.850777-27.374475-28.565483-41.062563-66.111169-41.062563-112.64046 0-45.011606 14.121955-82.397356 42.360762-112.153847 28.242209-29.756491 64.653034-44.633886 109.232474-44.633886 29.865383 0 55.888915 7.357028 78.070594 22.074488 22.181679 14.715758 38.738395 34.083254 49.665045 58.105891 10.930053 24.020936 16.393378 50.856054 16.393378 80.503653 0 3.678514-0.216083 8.76412-0.64995 15.255115H642.159341c0 24.022637 6.222168 42.580248 18.668204 55.672831 12.442634 13.094285 30.457485 19.641428 54.046254 19.641428z m-433.358573-16.231741h96.085444c44.365059 0 66.545036-18.070999 66.545036-54.209593 0-38.95618-21.531728-58.430867-64.596887-58.430866h-98.033593v112.640459z m0-174.317674h91.215921c16.87999 0 30.243103-3.949043 40.091041-11.848831 9.846236-7.899788 14.770204-20.179083 14.770204-36.842991 0-31.163583-20.558504-46.745374-61.677215-46.745374h-84.399951v95.437196zM191.595802 296.050631h192.820838c18.829841 0 35.599238 1.514282 50.314996 4.544547 14.71746 3.030265 28.403846 8.170317 41.064264 15.420155 12.658717 7.248136 22.397762 17.689876 29.213732 31.325219 6.817672 13.633642 10.225657 30.297549 10.225657 49.991722 0 39.16886-18.610355 67.627152-55.832767 85.371474 24.670886 6.926564 43.282943 19.369198 55.832767 37.331304 12.554929 17.962106 18.82814 40.034893 18.82814 66.221762 0 16.23004-2.650844 31.000244-7.954234 44.308912-5.301688 13.308667-12.442634 24.507548-21.424538 33.598343-8.980202 9.089095-19.638025 16.771098-31.973468 23.047712s-25.428027 10.821161-39.279453 13.633642c-13.848023 2.812481-28.347699 4.221274-43.497325 4.221274H191.595802V296.050631z" fill="#FFFFFF" p-id="8933"></path></svg>