<?xml version="1.0" standalone="no"?><!DOCTYPE svg PUBLIC "-//W3C//DTD SVG 1.1//EN" "http://www.w3.org/Graphics/SVG/1.1/DTD/svg11.dtd"><svg t="1711943762634" class="icon" viewBox="0 0 1024 1024" version="1.1" xmlns="http://www.w3.org/2000/svg" p-id="12106" xmlns:xlink="http://www.w3.org/1999/xlink" width="64" height="64"><path d="M533.76 563.797333c1.962667-34.133333 18.688-64.256 43.946667-85.589333a146.090667 146.090667 0 0 1 94.378666-33.706667c36.266667 0 69.589333 12.8 94.336 33.706667 25.258667 21.333333 41.941333 51.456 43.861334 85.546667 1.92 35.114667-12.16 67.669333-36.906667 91.861333a144.597333 144.597333 0 0 1-101.290667 40.021333 144.768 144.768 0 0 1-101.376-40.021333c-24.746667-24.192-38.826667-56.746667-36.906666-91.818667M313.6 632.789333c0.256 13.397333 4.522667 39.338667 10.922667 59.648a314.538667 314.538667 0 0 0 67.968 117.632 351.018667 351.018667 0 0 0 118.912 85.376 381.738667 381.738667 0 0 0 156.16 32.426667 382.464 382.464 0 0 0 156.032-32.938667 353.493333 353.493333 0 0 0 118.826666-85.76 316.928 316.928 0 0 0 67.925334-117.845333 297.130667 297.130667 0 0 0 10.666666-131.157333 303.914667 303.914667 0 0 0-43.349333-118.570667 331.264 331.264 0 0 0-79.018667-87.168h0.085334L578.816 108.8l-0.853333-0.64c-20.992-16.128-56.277333-16.042667-79.36 0.085333-23.338667 16.298667-25.984 43.306667-5.248 60.373334l-0.042667 0.042666 133.376 108.501334-406.613333 0.426666h-0.554667c-33.621333 0.042667-65.92 22.101333-72.32 50.005334-6.570667 28.373333 16.213333 51.925333 51.2 52.053333V379.733333l206.08-0.426666-367.786667 282.325333-1.450666 1.066667c-34.688 26.538667-45.866667 70.741333-24.021334 98.688 22.186667 28.458667 69.333333 28.501333 104.405334 0.170666L316.330667 597.333333s-2.944 22.186667-2.688 35.456z m515.84 74.282667c-41.386667 42.154667-99.242667 66.048-161.92 66.133333-62.72 0.170667-120.618667-23.552-162.005333-65.621333a192.426667 192.426667 0 0 1-44.202667-69.205333 182.698667 182.698667 0 0 1 12.032-150.144 200.618667 200.618667 0 0 1 49.194667-58.496c40.192-32.768 91.349333-50.474667 144.896-50.56 53.589333-0.085333 104.746667 17.493333 144.981333 50.133333 20.48 16.682667 37.12 36.437333 49.152 58.325333a182.613333 182.613333 0 0 1 22.272 72.789334 180.736 180.736 0 0 1-10.197333 77.269333 193.706667 193.706667 0 0 1-44.16 69.376" p-id="12107"></path></svg>