<?xml version="1.0" standalone="no"?><!DOCTYPE svg PUBLIC "-//W3C//DTD SVG 1.1//EN" "http://www.w3.org/Graphics/SVG/1.1/DTD/svg11.dtd"><svg t="1711943234508" class="icon" viewBox="0 0 1024 1024" version="1.1" xmlns="http://www.w3.org/2000/svg" p-id="11037" width="64" height="64" xmlns:xlink="http://www.w3.org/1999/xlink"><path d="M476.16 43.648c-3.285333 0.405333-13.269333 1.557333-22.186667 2.581333C303.722667 63.573333 166.421333 159.146667 95.488 295.786667a465.898667 465.898667 0 0 0-45.888 294.464c17.749333 103.850667 67.712 195.968 145.002667 267.328a467.882667 467.882667 0 0 0 183.68 103.957333c48.170667 14.101333 80.874667 18.666667 134.570666 18.816 43.136 0.106667 58.218667-1.28 93.354667-8.597333 42.965333-8.96 72.725333-19.221333 113.152-39.04 85.696-41.984 155.2-108.245333 203.029333-193.578667 65.450667-116.8 77.013333-259.562667 31.274667-386.709333-8.426667-23.402667-30.336-68.416-43.2-88.746667-75.328-118.954667-192.192-194.858667-332.757333-216.064-21.184-3.2-86.336-5.738667-101.546667-3.968m98.133333 89.301333c41.322667 7.082667 67.136 15.509333 105.813334 34.496C706.538667 180.394667 746.666667 205.696 746.666667 209.386667c0 3.541333-59.093333 50.368-95.850667 75.946666-25.28 17.6-63.488 42.346667-65.386667 42.346667-0.682667 0-6.464-7.872-12.864-17.493333-33.749333-50.709333-77.333333-105.749333-125.013333-157.866667-10.346667-11.328-13.418667-15.68-11.541333-16.384 2.837333-1.088 34.965333-5.781333 46.976-6.869333 19.242667-1.749333 71.424 0.490667 91.306666 3.882666m-211.733333 53.269334c51.84 54.101333 96.234667 108.16 134.933333 164.245333 9.130667 13.248 11.093333 17.130667 9.216 18.304-4.16 2.602667-40.938667 15.274667-59.413333 20.458667-38.272 10.773333-93.717333 19.861333-155.456 25.514666-11.733333 1.088-50.752 2.389333-86.698667 2.901334l-65.365333 0.938666 1.109333-4.906666c0.64-2.709333 3.648-12.608 6.741334-21.994667 29.248-89.130667 92.8-166.677333 174.826666-213.290667 10.773333-6.122667 20.117333-11.136 20.757334-11.136 0.64 0 9.344 8.533333 19.349333 18.965334m456.128 95.018666c35.690667 47.850667 59.008 100.864 70.464 160.277334 1.898667 9.749333 3.434667 19.434667 3.434667 21.504v3.754666h-69.546667c-71.36 0-92.8 1.216-135.936 7.765334-12.096 1.834667-23.317333 3.328-24.938667 3.328-2.048 0-4.096-3.2-6.784-10.666667a838.229333 838.229333 0 0 0-15.786666-37.674667c-6.570667-14.869333-11.285333-27.605333-10.474667-28.309333 0.832-0.725333 11.562667-7.573333 23.893333-15.232 41.557333-25.856 97.813333-67.221333 138.026667-101.482667 9.386667-8 17.493333-14.613333 18.048-14.698666 0.533333-0.085333 4.842667 5.056 9.6 11.434666m-256.704 182.592c11.477333 26.005333 15.104 35.882667 13.504 36.864-0.661333 0.384-8.853333 3.584-18.218667 7.082667-24.298667 9.088-57.194667 24.405333-88.789333 41.322667-90.090667 48.298667-171.84 109.162667-238.656 177.706666-11.114667 11.413333-20.821333 20.352-21.589333 19.882667-3.690667-2.282667-28.864-42.389333-38.336-61.12-26.090667-51.477333-39.232-101.504-41.429334-157.525333l-0.96-24.085334 68.949334-1.002666c89.536-1.322667 137.92-5.248 203.754666-16.597334 51.242667-8.832 102.613333-23.210667 136.533334-38.208 7.509333-3.306667 14.101333-6.058667 14.634666-6.08 0.533333-0.021333 5.312 9.770667 10.602667 21.76m323.029333 88.874667l8.64 1.109333-2.218666 15.36c-6.912 47.850667-27.178667 103.786667-52.245334 144.106667-21.696 34.901333-55.573333 73.066667-86.677333 97.621333-7.573333 5.973333-14.293333 11.050667-14.954667 11.306667-0.661333 0.234667-5.290667-23.957333-10.261333-53.76-11.093333-66.368-21.589333-119.573333-32.917333-166.848a1298.922667 1298.922667 0 0 1-8.874667-38.4c-0.298667-2.816 24.448-7.018667 58.581333-9.941333 20.8-1.770667 128.170667-2.197333 140.928-0.554667M610.773333 617.386667c4.736 19.477333 12.138667 52.949333 16.426667 74.389333 9.450667 47.296 30.336 173.077333 29.077333 175.125333-3.072 4.970667-57.173333 20.032-90.453333 25.173334-27.050667 4.181333-85.610667 4.16-110.997333-0.042667-52.309333-8.661333-98.133333-25.386667-140.8-51.370667-18.048-11.008-44.373333-29.973333-44.373334-32 0-2.474667 52.032-53.504 71.68-70.314666a925.888 925.888 0 0 1 191.765334-126.677334c27.178667-13.44 63.893333-29.461333 67.925333-29.653333 0.618667-0.021333 5.013333 15.893333 9.749333 35.370667" fill="#000000" p-id="11038"></path></svg>