<svg xmlns="http://www.w3.org/2000/svg" xmlns:xlink="http://www.w3.org/1999/xlink" width="66" height="66" viewBox="0 0 66 66" fill="none">
<path d="M5.96593 32.07C2.96568 27.2322 2.36316 22.7032 4.4963 19.29C7.35202 14.7141 14.5134 13.1138 23.5778 14.64C23.5934 14.64 23.6098 14.65 23.6252 14.65C23.6406 14.65 23.6574 14.65 23.6726 14.65C23.6878 14.65 23.705 14.67 23.72 14.67C23.735 14.67 23.7526 14.68 23.7674 14.68C23.7822 14.68 23.8003 14.69 23.8148 14.69C23.8293 14.69 23.8362 14.71 23.8504 14.71C23.8646 14.71 23.884 14.73 23.8978 14.73C23.9116 14.73 23.9199 14.75 23.9333 14.75C23.9467 14.75 23.9677 14.78 23.9807 14.78C23.9937 14.78 24.0038 14.8 24.0163 14.8C24.0289 14.8 24.0398 14.83 24.0519 14.83C24.0639 14.83 24.0874 14.86 24.0874 14.86C24.0874 14.86 24.123 14.8797 24.123 14.89C24.123 14.9003 24.1467 14.9092 24.1467 14.92C24.1467 14.9308 24.1822 14.9387 24.1822 14.95C24.1822 14.9613 24.2059 14.9783 24.2059 14.99C24.2059 15.0017 24.2415 15.0078 24.2415 15.02C24.2415 15.0322 24.2652 15.0475 24.2652 15.06C24.2652 15.0725 24.2889 15.0872 24.2889 15.1C24.2889 15.1129 24.3007 15.1268 24.3007 15.14C24.3007 15.1532 24.3244 15.1665 24.3244 15.18C24.3244 15.1935 24.3363 15.2063 24.3363 15.22C24.3363 15.2338 24.3481 15.2461 24.3481 15.26C24.3481 15.2739 24.36 15.2858 24.36 15.3C24.36 15.3142 24.3719 15.3258 24.3719 15.34C24.3719 15.3543 24.3837 15.3757 24.3837 15.39C24.3837 15.4044 24.3837 15.4156 24.3837 15.43C24.3837 15.4445 24.3837 15.4555 24.3837 15.47C24.3837 15.4845 24.3837 15.5056 24.3837 15.52C24.3837 15.5345 24.3837 15.5456 24.3837 15.56C24.3837 15.5745 24.3837 15.5857 24.3837 15.6C24.3837 15.6144 24.3719 15.6258 24.3719 15.64C24.3719 15.6543 24.36 15.6759 24.36 15.69C24.36 15.7041 24.3481 15.7161 24.3481 15.73C24.3481 15.7439 24.3363 15.7563 24.3363 15.77C24.3363 15.7837 24.3244 15.7966 24.3244 15.81C24.3244 15.8235 24.3007 15.8368 24.3007 15.85C24.3007 15.8632 24.277 15.8772 24.277 15.89C24.277 15.9028 24.2533 15.9175 24.2533 15.93C24.2533 15.9425 24.2296 15.9579 24.2296 15.97C24.2296 15.9821 24.2059 15.9883 24.2059 16C24.2059 16.0117 24.1822 16.0288 24.1822 16.04C24.1822 16.0513 24.1467 16.0593 24.1467 16.07C24.1467 16.0808 24.1111 16.0898 24.1111 16.1C24.1111 16.1103 24.0874 16.13 24.0874 16.13C24.0874 16.13 24.0522 16.16 24.04 16.16C24.0279 16.16 24.0171 16.18 24.0044 16.18C23.9918 16.18 23.982 16.21 23.9689 16.21C23.9559 16.21 23.9469 16.23 23.9333 16.23C23.9199 16.23 23.8998 16.25 23.8859 16.25C23.8721 16.25 23.8646 16.27 23.8504 16.27C23.8361 16.27 23.8175 16.29 23.803 16.29C23.7885 16.29 23.7704 16.3 23.7556 16.3C23.7408 16.3 23.735 16.32 23.72 16.32C23.705 16.32 23.6878 16.33 23.6726 16.33C23.6574 16.33 23.6406 16.34 23.6252 16.34C23.6098 16.34 23.5934 16.34 23.5778 16.34C23.5623 16.34 23.546 16.35 23.5304 16.35C23.5148 16.35 23.4987 16.35 23.483 16.35C23.4674 16.35 23.4513 16.35 23.4356 16.35C23.4199 16.35 23.4038 16.35 23.3881 16.35C23.3726 16.35 23.3563 16.35 23.3407 16.35C23.3252 16.35 23.3088 16.34 23.2933 16.34C23.278 16.34 23.2612 16.33 23.2459 16.33C14.8636 14.9187 8.48115 16.3465 6.10815 20.15C4.35944 22.9485 4.8871 26.8505 7.58963 31.21C7.58963 31.2222 7.61333 31.2374 7.61333 31.25C7.61333 31.2627 7.62519 31.277 7.62519 31.29C7.62519 31.303 7.64889 31.3167 7.64889 31.33C7.64889 31.3433 7.67259 31.3565 7.67259 31.37C7.67259 31.3836 7.68444 31.3962 7.68444 31.41C7.68444 31.4238 7.6963 31.436 7.6963 31.45C7.6963 31.464 7.70815 31.4758 7.70815 31.49C7.70815 31.5042 7.72 31.5257 7.72 31.54C7.72 31.5543 7.72 31.5656 7.72 31.58C7.72 31.5945 7.73185 31.6055 7.73185 31.62C7.73185 31.6345 7.73185 31.6555 7.73185 31.67C7.73185 31.6845 7.73185 31.6955 7.73185 31.71C7.73185 31.7245 7.73185 31.7356 7.73185 31.75C7.73185 31.7645 7.72 31.7857 7.72 31.8C7.72 31.8144 7.72 31.8257 7.72 31.84C7.72 31.8543 7.70815 31.8659 7.70815 31.88C7.70815 31.8941 7.6963 31.9061 7.6963 31.92C7.6963 31.9339 7.67259 31.9463 7.67259 31.96C7.67259 31.9737 7.66074 31.9966 7.66074 32.01C7.66074 32.0234 7.63704 32.0369 7.63704 32.05C7.63704 32.0632 7.62519 32.0672 7.62519 32.08C7.62519 32.0928 7.60148 32.1076 7.60148 32.12C7.60148 32.1325 7.56593 32.148 7.56593 32.16C7.56593 32.172 7.54222 32.1785 7.54222 32.19C7.54222 32.2017 7.51852 32.2188 7.51852 32.23C7.51852 32.2411 7.48296 32.2494 7.48296 32.26C7.48296 32.2706 7.44741 32.2799 7.44741 32.29C7.44741 32.3001 7.41185 32.32 7.41185 32.32C7.41185 32.32 7.38858 32.35 7.3763 32.35C7.36401 32.35 7.35352 32.38 7.34074 32.38C7.328 32.38 7.31842 32.4 7.30519 32.4C7.292 32.4 7.27142 32.42 7.25778 32.42C7.24414 32.42 7.23623 32.44 7.22222 32.44C7.20822 32.44 7.18913 32.46 7.17481 32.46C7.16045 32.46 7.15389 32.48 7.13926 32.48C7.12463 32.48 7.10676 32.49 7.09185 32.49C7.07691 32.49 7.05958 32.51 7.04444 32.51C7.02932 32.51 7.01239 32.52 6.99704 32.52C6.98173 32.52 6.96512 32.53 6.94963 32.53C6.93414 32.53 6.9178 32.53 6.90222 32.53C6.88659 32.53 6.88234 32.54 6.86667 32.54C6.85104 32.54 6.83498 32.54 6.81926 32.54C6.80354 32.54 6.78752 32.54 6.77185 32.54C6.75613 32.54 6.74007 32.53 6.72444 32.53C6.70882 32.53 6.69262 32.53 6.67704 32.53C6.6615 32.53 6.64508 32.52 6.62963 32.52C6.61423 32.52 6.59749 32.51 6.58222 32.51C6.56696 32.51 6.54985 32.5 6.53481 32.5C6.51973 32.5 6.50218 32.49 6.48741 32.49C6.4726 32.49 6.4664 32.47 6.45185 32.47C6.43735 32.47 6.41867 32.45 6.40444 32.45C6.39027 32.45 6.3709 32.44 6.35704 32.44C6.34322 32.44 6.33494 32.41 6.32148 32.41C6.30803 32.41 6.29893 32.39 6.28593 32.39C6.27288 32.39 6.25107 32.37 6.23852 32.37C6.22597 32.37 6.21502 32.34 6.20296 32.34C6.19086 32.34 6.16741 32.31 6.16741 32.31C6.16741 32.31 6.13185 32.2904 6.13185 32.28C6.13185 32.2697 6.10815 32.2609 6.10815 32.25C6.10815 32.2391 6.07259 32.2213 6.07259 32.21C6.07259 32.1987 6.04889 32.1918 6.04889 32.18C6.04889 32.1682 6.01333 32.1522 6.01333 32.14C6.01333 32.1278 5.98963 32.1226 5.98963 32.11C5.98963 32.0975 5.96593 32.083 5.96593 32.07ZM49.0948 15.84C54.3987 15.9041 58.2194 17.437 59.9393 20.19C62.3094 23.9828 60.4594 29.7975 54.9733 35.79C54.9733 35.8005 54.9378 35.809 54.9378 35.82C54.9378 35.8311 54.9141 35.8485 54.9141 35.86C54.9141 35.8715 54.8785 35.878 54.8785 35.89C54.8785 35.902 54.8548 35.9177 54.8548 35.93C54.8548 35.9424 54.8311 35.9572 54.8311 35.97C54.8311 35.9828 54.8074 35.9969 54.8074 36.01C54.8074 36.0232 54.7956 36.0366 54.7956 36.05C54.7956 36.0634 54.7719 36.0763 54.7719 36.09C54.7719 36.1037 54.76 36.1161 54.76 36.13C54.76 36.144 54.7481 36.1558 54.7481 36.17C54.7481 36.1842 54.7363 36.1957 54.7363 36.21C54.7363 36.2243 54.7244 36.2455 54.7244 36.26C54.7244 36.2745 54.7126 36.2855 54.7126 36.3C54.7126 36.3146 54.7126 36.3254 54.7126 36.34C54.7126 36.3547 54.7126 36.3754 54.7126 36.39C54.7126 36.4047 54.7126 36.4154 54.7126 36.43C54.7126 36.4447 54.7126 36.4555 54.7126 36.47C54.7126 36.4846 54.7244 36.5056 54.7244 36.52C54.7244 36.5345 54.7363 36.5457 54.7363 36.56C54.7363 36.5743 54.7481 36.5858 54.7481 36.6C54.7481 36.6142 54.76 36.636 54.76 36.65C54.76 36.664 54.7719 36.6763 54.7719 36.69C54.7719 36.7038 54.7837 36.7166 54.7837 36.73C54.7837 36.7435 54.8074 36.7569 54.8074 36.77C54.8074 36.7832 54.8311 36.7972 54.8311 36.81C54.8311 36.8228 54.8548 36.8376 54.8548 36.85C54.8548 36.8624 54.8785 36.868 54.8785 36.88C54.8785 36.892 54.9141 36.9085 54.9141 36.92C54.9141 36.9315 54.9378 36.939 54.9378 36.95C54.9378 36.9611 54.9733 36.9695 54.9733 36.98C54.9733 36.9906 55.0089 37 55.0089 37.01C55.0089 37.02 55.0324 37.04 55.0444 37.04C55.0565 37.04 55.0674 37.07 55.08 37.07C55.0926 37.07 55.1026 37.1 55.1156 37.1C55.1286 37.1 55.1376 37.12 55.1511 37.12C55.1647 37.12 55.1847 37.14 55.1985 37.14C55.2125 37.14 55.2317 37.16 55.2459 37.16C55.2602 37.16 55.2668 37.18 55.2815 37.18C55.2961 37.18 55.3141 37.2 55.3289 37.2C55.3438 37.2 55.3612 37.21 55.3763 37.21C55.3915 37.21 55.4084 37.22 55.4237 37.22C55.4391 37.22 55.4437 37.23 55.4593 37.23C55.4748 37.23 55.491 37.24 55.5067 37.24C55.5224 37.24 55.5384 37.24 55.5541 37.24C55.5699 37.24 55.5857 37.25 55.6015 37.25C55.6173 37.25 55.633 37.25 55.6489 37.25C55.6647 37.25 55.6806 37.25 55.6963 37.25C55.7121 37.25 55.728 37.24 55.7437 37.24C55.7594 37.24 55.7755 37.24 55.7911 37.24C55.8068 37.24 55.8231 37.23 55.8385 37.23C55.854 37.23 55.8707 37.22 55.8859 37.22C55.9012 37.22 55.9183 37.21 55.9333 37.21C55.9484 37.21 55.966 37.19 55.9807 37.19C55.9956 37.19 56.0137 37.17 56.0281 37.17C56.0426 37.17 56.0496 37.16 56.0637 37.16C56.0778 37.16 56.0974 37.13 56.1111 37.13C56.1249 37.13 56.1334 37.11 56.1467 37.11C56.1599 37.11 56.1693 37.09 56.1822 37.09C56.1951 37.09 56.2173 37.06 56.2296 37.06C56.242 37.06 56.2652 37.03 56.2652 37.03C56.2771 37.03 56.3007 37.0103 56.3007 37C56.3007 36.9898 56.3244 36.9808 56.3244 36.97C56.3244 36.9592 56.36 36.9513 56.36 36.94C56.36 36.9288 56.3837 36.9118 56.3837 36.9C62.3206 30.4157 64.4011 23.8979 61.5511 19.33C59.4527 15.9702 55.0121 14.2022 49.1185 14.13C49.1028 14.13 49.0869 14.12 49.0711 14.12C49.0554 14.12 49.0395 14.12 49.0237 14.12C49.008 14.12 48.992 14.13 48.9763 14.13C48.9606 14.13 48.9445 14.13 48.9289 14.13C48.9133 14.13 48.9088 14.14 48.8933 14.14C48.8779 14.14 48.8612 14.15 48.8459 14.15C48.8306 14.15 48.8137 14.16 48.7985 14.16C48.7835 14.16 48.766 14.17 48.7511 14.17C48.7363 14.17 48.7183 14.19 48.7037 14.19C48.6892 14.19 48.6824 14.21 48.6681 14.21C48.6539 14.21 48.6346 14.23 48.6207 14.23C48.6069 14.23 48.5987 14.25 48.5852 14.25C48.5718 14.25 48.5509 14.27 48.5378 14.27C48.5248 14.27 48.5148 14.3 48.5022 14.3C48.4896 14.3 48.4788 14.32 48.4667 14.32C48.4546 14.32 48.4311 14.35 48.4311 14.35C48.4311 14.35 48.3956 14.3696 48.3956 14.38C48.3956 14.3905 48.36 14.3991 48.36 14.41C48.36 14.421 48.3363 14.4386 48.3363 14.45C48.3363 14.4614 48.3007 14.4682 48.3007 14.48C48.3007 14.4919 48.277 14.5078 48.277 14.52C48.277 14.5323 48.2533 14.5473 48.2533 14.56C48.2533 14.5727 48.2296 14.577 48.2296 14.59C48.2296 14.603 48.2059 14.6167 48.2059 14.63C48.2059 14.6433 48.1941 14.6564 48.1941 14.67C48.1941 14.6837 48.1822 14.7062 48.1822 14.72C48.1822 14.7339 48.1585 14.746 48.1585 14.76C48.1585 14.7741 48.1467 14.7858 48.1467 14.8C48.1467 14.8143 48.1467 14.8257 48.1467 14.84C48.1467 14.8544 48.1348 14.8755 48.1348 14.89C48.1348 14.9045 48.1348 14.9155 48.1348 14.93C48.1348 14.9445 48.1348 14.9555 48.1348 14.97C48.1348 14.9846 48.1348 15.0055 48.1348 15.02C48.1348 15.0346 48.1348 15.0455 48.1348 15.06C48.1348 15.0745 48.1348 15.0856 48.1348 15.1C48.1348 15.1144 48.1467 15.1357 48.1467 15.15C48.1467 15.1643 48.1585 15.1758 48.1585 15.19C48.1585 15.2042 48.1704 15.2161 48.1704 15.23C48.1704 15.244 48.1822 15.2563 48.1822 15.27C48.1822 15.2838 48.2059 15.2966 48.2059 15.31C48.2059 15.3235 48.2178 15.3368 48.2178 15.35C48.2178 15.3632 48.2415 15.3772 48.2415 15.39C48.2415 15.4028 48.2652 15.4176 48.2652 15.43C48.2652 15.4425 48.2889 15.458 48.2889 15.47C48.2889 15.4821 48.3244 15.4884 48.3244 15.5C48.3244 15.5117 48.3481 15.5288 48.3481 15.54C48.3481 15.5512 48.3837 15.5594 48.3837 15.57C48.3837 15.5806 48.4074 15.5899 48.4074 15.6C48.4074 15.6102 48.443 15.63 48.443 15.63C48.4549 15.63 48.4662 15.66 48.4785 15.66C48.4909 15.66 48.5131 15.69 48.5259 15.69C48.5388 15.69 48.5482 15.71 48.5615 15.71C48.5748 15.71 48.5834 15.73 48.597 15.73C48.6107 15.73 48.6304 15.75 48.6444 15.75C48.6585 15.75 48.6656 15.77 48.68 15.77C48.6944 15.77 48.7127 15.79 48.7274 15.79C48.7422 15.79 48.7598 15.8 48.7748 15.8C48.7899 15.8 48.807 15.81 48.8222 15.81C48.8375 15.81 48.8543 15.83 48.8696 15.83C48.8851 15.83 48.9015 15.83 48.917 15.83C48.9326 15.83 48.9369 15.84 48.9526 15.84C48.9683 15.84 48.9843 15.84 49 15.84C49.0157 15.84 49.0317 15.84 49.0474 15.84C49.0632 15.84 49.0791 15.84 49.0948 15.84ZM43.7378 56.58C43.7248 56.58 43.7156 56.55 43.7022 56.55C43.6888 56.55 43.6686 56.54 43.6548 56.54C43.6411 56.54 43.6334 56.52 43.6193 56.52C43.6052 56.52 43.5862 56.5 43.5719 56.5C43.5575 56.5 43.5391 56.49 43.5244 56.49C43.5099 56.49 43.5037 56.48 43.4889 56.48C43.4741 56.48 43.4564 56.47 43.4415 56.47C43.4266 56.47 43.4092 56.46 43.3941 56.46C43.379 56.46 43.3618 56.46 43.3467 56.46C43.3315 56.46 43.3145 56.45 43.2993 56.45C43.2841 56.45 43.2789 56.45 43.2637 56.45C43.2485 56.45 43.2315 56.45 43.2163 56.45C43.2011 56.45 43.1841 56.46 43.1689 56.46C43.1537 56.46 43.1366 56.46 43.1215 56.46C43.1064 56.46 43.089 56.47 43.0741 56.47C43.0592 56.47 43.0534 56.48 43.0385 56.48C43.0238 56.48 43.0057 56.49 42.9911 56.49C42.9765 56.49 42.9581 56.5 42.9437 56.5C42.9293 56.5 42.9222 56.52 42.9081 56.52C42.8941 56.52 42.8746 56.53 42.8607 56.53C42.847 56.53 42.8387 56.55 42.8252 56.55C42.8118 56.55 42.7909 56.57 42.7778 56.57C42.7647 56.57 42.7549 56.6 42.7422 56.6C42.7296 56.6 42.7189 56.62 42.7067 56.62C42.6944 56.62 42.6711 56.65 42.6711 56.65L42.6356 56.67L42.6 56.7C42.6 56.71 42.5644 56.7196 42.5644 56.73C42.5644 56.7405 42.5407 56.7592 42.5407 56.77C42.5407 56.7809 42.517 56.7887 42.517 56.8C42.517 56.8113 42.4815 56.8183 42.4815 56.83C42.4815 56.8417 42.4578 56.858 42.4578 56.87C39.7582 61.0209 36.4463 63.28 33.0356 63.28C28.2894 63.28 23.7665 58.8764 20.8993 51.47C20.8993 51.4563 20.8874 51.4435 20.8874 51.43C20.8874 51.4166 20.8637 51.4032 20.8637 51.39C20.8637 51.3768 20.84 51.3629 20.84 51.35C20.84 51.3372 20.8281 51.3325 20.8281 51.32C20.8281 51.3075 20.8044 51.2922 20.8044 51.28C20.8044 51.2678 20.7689 51.2518 20.7689 51.24C20.7689 51.2283 20.7452 51.2213 20.7452 51.21C20.7452 51.1987 20.7215 51.1809 20.7215 51.17C20.7215 51.1592 20.6859 51.1504 20.6859 51.14C20.6859 51.1297 20.6504 51.11 20.6504 51.11L20.6148 51.08C20.6148 51.08 20.5916 51.06 20.5793 51.06C20.567 51.06 20.5565 51.03 20.5437 51.03C20.531 51.03 20.5214 51.01 20.5081 51.01C20.495 51.01 20.4744 50.98 20.4607 50.98C20.4472 50.98 20.4391 50.96 20.4252 50.96C20.4112 50.96 20.3921 50.95 20.3778 50.95C20.3636 50.95 20.3569 50.93 20.3422 50.93C20.3277 50.93 20.3097 50.92 20.2948 50.92C20.28 50.92 20.2624 50.9 20.2474 50.9C20.2324 50.9 20.2152 50.89 20.2 50.89C20.1848 50.89 20.168 50.89 20.1526 50.89C20.1373 50.89 20.1326 50.88 20.117 50.88C20.1016 50.88 20.0851 50.88 20.0696 50.88C20.0541 50.88 20.0378 50.88 20.0222 50.88C20.0067 50.88 19.9903 50.88 19.9748 50.88C19.9593 50.88 19.9429 50.88 19.9274 50.88C19.912 50.88 19.8954 50.89 19.88 50.89C19.8647 50.89 19.8479 50.89 19.8326 50.89C19.8174 50.89 19.8003 50.9 19.7852 50.9C19.7701 50.9 19.7527 50.91 19.7378 50.91C19.7229 50.91 19.7169 50.93 19.7022 50.93C19.6876 50.93 19.6692 50.94 19.6548 50.94C19.6405 50.94 19.6214 50.96 19.6074 50.96C19.5934 50.96 19.5855 50.98 19.5719 50.98C19.5582 50.98 19.5377 51 19.5244 51C19.5112 51 19.5018 51.02 19.4889 51.02C19.476 51.02 19.4658 51.05 19.4533 51.05C19.4409 51.05 19.4297 51.08 19.4178 51.08C19.4059 51.08 19.3822 51.1 19.3822 51.1C19.3822 51.1 19.3467 51.1198 19.3467 51.13C19.3467 51.1403 19.3111 51.1593 19.3111 51.17C19.3111 51.1808 19.2874 51.1888 19.2874 51.2C19.2874 51.2112 19.2637 51.2183 19.2637 51.23C19.2637 51.2417 19.2281 51.258 19.2281 51.27C19.2281 51.2821 19.2044 51.2976 19.2044 51.31C19.2044 51.3225 19.1807 51.3273 19.1807 51.34C19.1807 51.3528 19.1689 51.3669 19.1689 51.38C19.1689 51.3931 19.1452 51.4067 19.1452 51.42C19.1452 51.4334 19.1333 51.4464 19.1333 51.46C19.1333 51.4737 19.1215 51.4862 19.1215 51.5C19.1215 51.5138 19.1096 51.526 19.1096 51.54C19.1096 51.554 19.0978 51.5758 19.0978 51.59C19.0978 51.6042 19.0859 51.6158 19.0859 51.63C19.0859 51.6443 19.0859 51.6557 19.0859 51.67C19.0859 51.6843 19.0859 51.7057 19.0859 51.72C19.0859 51.7344 19.0859 51.7457 19.0859 51.76C19.0859 51.7743 19.0859 51.7857 19.0859 51.8C19.0859 51.8143 19.0859 51.8258 19.0859 51.84C19.0859 51.8543 19.0978 51.8758 19.0978 51.89C19.0978 51.9042 19.1096 51.916 19.1096 51.93C19.1096 51.944 19.1215 51.9562 19.1215 51.97C19.1215 51.9838 19.1333 51.9964 19.1333 52.01C19.1333 52.0237 19.1452 52.0367 19.1452 52.05C22.2466 60.0632 27.3298 65 33.0356 65C37.1978 65 41.0517 62.3787 44.0578 57.76C44.0578 57.748 44.0815 57.7324 44.0815 57.72C44.0815 57.7076 44.0933 57.6928 44.0933 57.68C44.0933 57.6673 44.117 57.653 44.117 57.64C44.117 57.627 44.1289 57.6133 44.1289 57.6C44.1289 57.5868 44.1407 57.5735 44.1407 57.56C44.1407 57.5465 44.1526 57.5337 44.1526 57.52C44.1526 57.5063 44.1644 57.4938 44.1644 57.48C44.1644 57.4662 44.1763 57.4539 44.1763 57.44C44.1763 57.4261 44.1763 57.414 44.1763 57.4C44.1763 57.386 44.1881 57.3741 44.1881 57.36C44.1881 57.346 44.1881 57.3241 44.1881 57.31C44.1881 57.2959 44.1881 57.2841 44.1881 57.27C44.1881 57.256 44.1763 57.244 44.1763 57.23C44.1763 57.216 44.1763 57.204 44.1763 57.19C44.1763 57.1761 44.1644 57.1638 44.1644 57.15C44.1644 57.1362 44.1644 57.1137 44.1644 57.1C44.1644 57.0863 44.1407 57.0735 44.1407 57.06C44.1407 57.0465 44.1289 57.0333 44.1289 57.02C44.1289 57.0067 44.117 56.993 44.117 56.98C44.117 56.967 44.0933 56.9628 44.0933 56.95C44.0933 56.9373 44.0815 56.9225 44.0815 56.91C44.0815 56.8976 44.0578 56.8821 44.0578 56.87C44.0578 56.8579 44.0341 56.8518 44.0341 56.84C44.0341 56.8283 43.9985 56.8113 43.9985 56.8C43.9985 56.7887 43.9748 56.7809 43.9748 56.77C43.9748 56.7591 43.9511 56.7505 43.9511 56.74C43.9511 56.7296 43.9156 56.72 43.9156 56.71L43.88 56.68L43.8444 56.65C43.8444 56.65 43.8211 56.62 43.8089 56.62C43.7967 56.62 43.786 56.6 43.7733 56.6C43.7607 56.6 43.7509 56.58 43.7378 56.58ZM65 49.64C65 49.687 65 49.7331 65 49.78C65 49.827 64.9881 49.8731 64.9881 49.92C64.9881 49.9669 64.9763 50.0133 64.9763 50.06C64.9763 50.1067 64.9526 50.1535 64.9526 50.2C64.9526 50.2465 64.9289 50.2938 64.9289 50.34C64.9289 50.3862 64.9052 50.434 64.9052 50.48C64.9052 50.526 64.8818 50.5744 64.8696 50.62C64.8576 50.6656 64.8479 50.7048 64.8341 50.75C64.8203 50.7952 64.8021 50.8453 64.7867 50.89C64.7712 50.9347 64.7564 50.9758 64.7393 51.02C64.7222 51.0642 64.6988 51.1064 64.68 51.15C64.6613 51.1937 64.6529 51.237 64.6326 51.28C64.6123 51.323 64.5834 51.3677 64.5615 51.41C64.5395 51.4523 64.5139 51.4984 64.4904 51.54C64.4669 51.5817 64.4443 51.6192 64.4193 51.66C64.3943 51.7008 64.3747 51.74 64.3481 51.78C64.3217 51.8201 64.2932 51.8608 64.2652 51.9C64.2372 51.9392 64.2116 51.9817 64.1822 52.02C64.1528 52.0583 64.1182 52.0927 64.0874 52.13C64.0567 52.1673 64.0248 52.2037 63.9926 52.24C63.9605 52.2763 63.9312 52.3147 63.8978 52.35C63.8643 52.3853 63.8259 52.4158 63.7911 52.45C63.7564 52.4842 63.7205 52.5269 63.6844 52.56C63.6484 52.5931 63.615 52.618 63.5778 52.65C63.5406 52.6819 63.4977 52.7193 63.4593 52.75C63.4209 52.7808 63.3803 52.8105 63.3407 52.84C63.3012 52.8695 63.2628 52.8918 63.2222 52.92C63.1817 52.9483 63.1453 52.9831 63.1037 53.01C63.0621 53.037 63.0159 53.0644 62.9733 53.09C62.9308 53.1156 62.8865 53.1358 62.843 53.16C62.7995 53.1843 62.757 53.2072 62.7126 53.23C62.6682 53.2529 62.6274 53.2786 62.5822 53.3C62.5371 53.3214 62.486 53.34 62.44 53.36C62.3941 53.38 62.3563 53.4015 62.3096 53.42C62.263 53.4385 62.2148 53.453 62.1674 53.47C62.1201 53.487 62.0731 53.5045 62.0252 53.52C61.9773 53.5355 61.9196 53.546 61.8711 53.56C61.8227 53.574 61.7779 53.5875 61.7289 53.6C61.68 53.6125 61.6361 53.6291 61.5867 53.64C61.5373 53.6509 61.4824 53.67 61.4326 53.67C61.3829 53.67 61.3405 53.69 61.2904 53.69C61.2403 53.69 61.1866 53.72 61.1363 53.72C61.086 53.72 61.0328 53.73 60.9822 53.73C60.9317 53.73 60.8788 53.74 60.8281 53.74C60.7775 53.74 60.7249 53.75 60.6741 53.75C60.6233 53.75 60.5827 53.75 60.5319 53.75C60.481 53.75 60.4285 53.75 60.3778 53.75C60.327 53.75 60.2744 53.74 60.2237 53.74C60.1731 53.74 60.1202 53.73 60.0696 53.73C60.0192 53.73 59.9658 53.71 59.9156 53.71C59.8653 53.71 59.8233 53.69 59.7733 53.69C59.7233 53.69 59.669 53.66 59.6193 53.66C59.5697 53.66 59.5145 53.6414 59.4652 53.63C59.4159 53.6187 59.3718 53.6029 59.323 53.59C59.2742 53.5771 59.2291 53.5645 59.1807 53.55C59.1324 53.5356 59.0863 53.526 59.0385 53.51C58.9908 53.4941 58.9434 53.4775 58.8963 53.46C58.8492 53.4426 58.8005 53.419 58.7541 53.4C58.7076 53.3811 58.6576 53.3604 58.6119 53.34C58.5661 53.3196 58.5265 53.3019 58.4815 53.28C58.4366 53.2582 58.3834 53.2333 58.3393 53.21C58.2952 53.1868 58.2521 53.1647 58.2089 53.14C58.1657 53.1154 58.1208 53.0861 58.0785 53.06C58.0362 53.0341 58.0013 53.0073 57.96 52.98C50.864 56.8422 37.308 54.8758 24.5496 48.06C19.1156 45.16 14.348 41.6732 10.683 37.95C10.683 37.9397 10.6593 37.9308 10.6593 37.92C10.6593 37.9092 10.6237 37.8913 10.6237 37.88C10.6237 37.8688 10.6 37.8617 10.6 37.85C10.6 37.8383 10.5644 37.8222 10.5644 37.81C10.5644 37.7979 10.5407 37.7925 10.5407 37.78C10.5407 37.7675 10.517 37.7529 10.517 37.74C10.517 37.7272 10.5052 37.7132 10.5052 37.7C10.5052 37.6868 10.4815 37.6735 10.4815 37.66C10.4815 37.6466 10.4696 37.6337 10.4696 37.62C10.4696 37.6063 10.4578 37.5939 10.4578 37.58C10.4578 37.5661 10.4459 37.5541 10.4459 37.54C10.4459 37.526 10.4341 37.5043 10.4341 37.49C10.4341 37.4758 10.4222 37.4643 10.4222 37.45C10.4222 37.4357 10.4222 37.4244 10.4222 37.41C10.4222 37.3956 10.4222 37.3745 10.4222 37.36C10.4222 37.3456 10.4222 37.3344 10.4222 37.32C10.4222 37.3056 10.4222 37.2944 10.4222 37.28C10.4222 37.2656 10.4222 37.2443 10.4222 37.23C10.4222 37.2157 10.4341 37.2043 10.4341 37.19C10.4341 37.1758 10.4459 37.1641 10.4459 37.15C10.4459 37.136 10.4578 37.1239 10.4578 37.11C10.4578 37.0961 10.4696 37.0837 10.4696 37.07C10.4696 37.0563 10.4815 37.0334 10.4815 37.02C10.4815 37.0066 10.5052 37.0032 10.5052 36.99C10.5052 36.9769 10.5289 36.9628 10.5289 36.95C10.5289 36.9372 10.5407 36.9225 10.5407 36.91C10.5407 36.8976 10.5763 36.8821 10.5763 36.87C10.5763 36.8579 10.6 36.8517 10.6 36.84C10.6 36.8283 10.6237 36.8113 10.6237 36.8C10.6237 36.7888 10.6593 36.7808 10.6593 36.77C10.6593 36.7593 10.683 36.7503 10.683 36.74C10.683 36.7297 10.7185 36.71 10.7185 36.71C10.7185 36.71 10.742 36.68 10.7541 36.68C10.7661 36.68 10.7771 36.65 10.7896 36.65C10.8022 36.65 10.824 36.63 10.837 36.63C10.85 36.63 10.8592 36.6 10.8726 36.6C10.8861 36.6 10.8944 36.58 10.9081 36.58C10.922 36.58 10.9414 36.56 10.9556 36.56C10.9697 36.56 10.9885 36.55 11.003 36.55C11.0175 36.55 11.0238 36.53 11.0385 36.53C11.0533 36.53 11.071 36.52 11.0859 36.52C11.101 36.52 11.1182 36.51 11.1333 36.51C11.1485 36.51 11.1654 36.5 11.1807 36.5C11.1961 36.5 11.2127 36.49 11.2281 36.49C11.2437 36.49 11.26 36.49 11.2756 36.49C11.2911 36.49 11.3074 36.48 11.323 36.48C11.3386 36.48 11.3429 36.48 11.3585 36.48C11.3741 36.48 11.3903 36.49 11.4059 36.49C11.4215 36.49 11.4379 36.49 11.4533 36.49C11.4689 36.49 11.4854 36.5 11.5007 36.5C11.5162 36.5 11.533 36.5 11.5481 36.5C11.5635 36.5 11.5805 36.51 11.5956 36.51C11.6106 36.51 11.6281 36.53 11.643 36.53C11.6578 36.53 11.6758 36.54 11.6904 36.54C11.7049 36.54 11.7117 36.56 11.7259 36.56C11.7402 36.56 11.7594 36.58 11.7733 36.58C11.7873 36.58 11.7953 36.6 11.8089 36.6C11.8224 36.6 11.8432 36.62 11.8563 36.62C11.8694 36.62 11.8792 36.64 11.8919 36.64C11.9046 36.64 11.9152 36.67 11.9274 36.67C11.9397 36.67 11.963 36.7 11.963 36.7C11.963 36.7 11.9985 36.72 11.9985 36.73C11.9985 36.7401 12.0341 36.7495 12.0341 36.76C12.0341 36.7706 12.0578 36.779 12.0578 36.79C15.5899 40.3796 20.2048 43.7681 25.4741 46.58C37.5185 53.0109 50.1939 54.9149 56.68 51.67C56.638 51.6018 56.5993 51.5304 56.5615 51.46C56.5237 51.3897 56.4881 51.3222 56.4548 51.25C56.4215 51.1778 56.3889 51.1039 56.36 51.03C56.3311 50.9562 56.3013 50.8853 56.277 50.81C56.2529 50.7348 56.2373 50.6564 56.2178 50.58C56.1983 50.5036 56.1851 50.4273 56.1704 50.35C56.1557 50.2727 56.123 50.188 56.123 50.11C56.123 50.032 56.1111 49.9584 56.1111 49.88C56.1111 49.8016 56.0993 49.7186 56.0993 49.64C56.0993 49.5614 56.0993 49.4884 56.0993 49.41C56.0993 49.3316 56.123 49.2481 56.123 49.17C56.123 49.0919 56.1443 49.0174 56.1585 48.94C56.1727 48.8626 56.1869 48.7866 56.2059 48.71C56.225 48.6334 56.2533 48.5554 56.277 48.48C56.3007 48.4046 56.3198 48.334 56.3481 48.26C56.3765 48.186 56.4101 48.1124 56.443 48.04C56.4759 47.9676 56.5124 47.8905 56.5496 47.82C56.587 47.7495 56.6266 47.6885 56.6681 47.62C56.7097 47.5516 56.7527 47.4762 56.7985 47.41C56.8443 47.3438 56.891 47.2836 56.9407 47.22C56.9905 47.1564 57.0412 47.0909 57.0948 47.03C57.1485 46.9692 57.2034 46.908 57.2607 46.85C57.3181 46.7921 57.3778 46.7449 57.4385 46.69C57.4994 46.6352 57.5641 46.5815 57.6281 46.53C57.6922 46.4785 57.7624 46.428 57.8296 46.38C57.8968 46.332 57.9611 46.2845 58.0311 46.24C58.1012 46.1956 58.1718 46.1507 58.2444 46.11C58.3171 46.0694 58.3946 46.0268 58.4696 45.99C58.5447 45.9533 58.6177 45.9227 58.6948 45.89C58.772 45.8573 58.8528 45.8286 58.9319 45.8C59.011 45.7714 59.0881 45.7444 59.1689 45.72C59.2496 45.6957 59.3357 45.67 59.4178 45.65C59.4999 45.63 59.5835 45.6157 59.6667 45.6C59.7499 45.5843 59.8316 45.5712 59.9156 45.56C59.9996 45.5488 60.0799 45.53 60.1644 45.53C60.2491 45.53 60.3403 45.52 60.4252 45.52C60.5101 45.52 60.5892 45.52 60.6741 45.52C60.759 45.52 60.8383 45.53 60.923 45.53C61.0076 45.53 61.0997 45.5489 61.1837 45.56C61.2678 45.5712 61.3494 45.5845 61.4326 45.6C61.5159 45.6156 61.5994 45.63 61.6815 45.65C61.7637 45.67 61.8496 45.6958 61.9304 45.72C62.0111 45.7443 62.0883 45.7715 62.1674 45.8C62.2465 45.8285 62.3272 45.8574 62.4044 45.89C62.4817 45.9227 62.5546 45.9534 62.6296 45.99C62.7047 46.0267 62.7821 46.0694 62.8548 46.11C62.9275 46.1506 62.9981 46.1956 63.0681 46.24C63.1382 46.2844 63.2024 46.322 63.2696 46.37C63.3369 46.418 63.407 46.4685 63.4711 46.52C63.5353 46.5715 63.5881 46.6252 63.6489 46.68C63.7097 46.7348 63.7694 46.7921 63.8267 46.85C63.884 46.9079 63.9389 46.9692 63.9926 47.03C64.0463 47.0909 64.1087 47.1564 64.1585 47.22C64.2084 47.2836 64.2549 47.3439 64.3007 47.41C64.3466 47.4762 64.3895 47.5416 64.4311 47.61C64.4728 47.6784 64.5123 47.7495 64.5496 47.82C64.587 47.8905 64.6234 47.9676 64.6563 48.04C64.6892 48.1124 64.7109 48.1861 64.7393 48.26C64.7677 48.334 64.7985 48.4046 64.8222 48.48C64.8461 48.5554 64.8624 48.6334 64.8815 48.71C64.9006 48.7866 64.9264 48.8626 64.9407 48.94C64.9551 49.0174 64.9763 49.0919 64.9763 49.17C64.9763 49.2481 64.9881 49.3316 64.9881 49.41C64.9881 49.4884 65 49.5615 65 49.64ZM9.90074 49.64C9.90074 49.7002 9.90074 49.7599 9.90074 49.82C9.90074 49.8801 9.88889 49.9401 9.88889 50C9.88889 50.06 9.86518 50.1204 9.86518 50.18C9.86518 50.2397 9.84148 50.3007 9.84148 50.36C9.84148 50.4193 9.80816 50.4812 9.79407 50.54C9.78005 50.5988 9.76347 50.6519 9.74667 50.71C9.72987 50.7681 9.71884 50.8326 9.69926 50.89C9.67975 50.9474 9.66229 51.0035 9.64 51.06C9.61778 51.1166 9.59382 51.1644 9.56889 51.22C9.54396 51.2756 9.51343 51.3355 9.48593 51.39C9.45842 51.4446 9.43304 51.4966 9.40296 51.55C9.37288 51.6034 9.34073 51.6579 9.30815 51.71C9.27556 51.7621 9.23651 51.8093 9.20148 51.86C9.16652 51.9107 9.13221 51.9608 9.09482 52.01C9.05742 52.0593 9.016 52.1124 8.9763 52.16C8.9366 52.2077 8.89971 52.254 8.85778 52.3C8.81591 52.3461 8.77151 52.3958 8.72741 52.44C8.68337 52.4844 8.64317 52.5276 8.59704 52.57C8.55097 52.6125 8.50291 52.6495 8.45481 52.69C8.40678 52.7306 8.35074 52.7715 8.30074 52.81C8.25081 52.8486 8.19842 52.8835 8.14667 52.92C8.09498 52.9565 8.04597 52.9957 7.99259 53.03C7.93921 53.0644 7.88168 53.0979 7.82667 53.13C7.77166 53.1622 7.7172 53.1901 7.66074 53.22C7.60429 53.2499 7.55262 53.2824 7.49481 53.31C7.43696 53.3376 7.37611 53.3648 7.31704 53.39C7.25796 53.4152 7.19946 53.4372 7.13926 53.46C7.07905 53.4828 7.02272 53.4997 6.96148 53.52C6.90024 53.5404 6.83399 53.5622 6.77185 53.58C6.70971 53.5979 6.64514 53.6147 6.58222 53.63C6.51931 53.6453 6.45618 53.6573 6.39259 53.67C6.329 53.6828 6.26714 53.6999 6.20296 53.71C6.13883 53.7201 6.07787 53.73 6.01333 53.73C5.94879 53.73 5.8767 53.75 5.81185 53.75C5.747 53.75 5.68726 53.76 5.62222 53.76C5.55719 53.76 5.48578 53.77 5.42074 53.77C5.35566 53.77 5.2961 53.76 5.23111 53.76C5.16612 53.76 5.09441 53.75 5.02963 53.75C4.96485 53.75 4.90446 53.73 4.84 53.73C4.77554 53.73 4.71437 53.7109 4.65037 53.7C4.58637 53.6892 4.52417 53.6735 4.46074 53.66C4.39732 53.6466 4.33384 53.636 4.27111 53.62C4.20838 53.604 4.14339 53.5885 4.08148 53.57C4.01957 53.5515 3.95283 53.531 3.89185 53.51C3.83087 53.489 3.77399 53.4634 3.71407 53.44C3.65415 53.4166 3.59504 53.3959 3.5363 53.37C3.47755 53.3442 3.41599 53.3083 3.35852 53.28C3.30105 53.2518 3.24866 53.2306 3.19259 53.2C3.13652 53.1695 3.08123 53.1328 3.02667 53.1C2.97209 53.0672 2.91371 53.035 2.86074 53C2.80777 52.965 2.75793 52.9271 2.70667 52.89C2.65541 52.853 2.6139 52.8191 2.56444 52.78C2.51499 52.7409 2.45792 52.7011 2.41037 52.66C2.36281 52.619 2.31371 52.573 2.26815 52.53C2.22258 52.4871 2.18126 52.4448 2.13778 52.4C2.09429 52.3553 2.04872 52.3065 2.00741 52.26C1.96609 52.2135 1.92797 52.1681 1.88889 52.12C1.84981 52.0719 1.81897 52.0197 1.78222 51.97C1.74546 51.9204 1.70992 51.8711 1.67556 51.82C1.64119 51.7689 1.6008 51.7225 1.56889 51.67C1.53697 51.6176 1.51532 51.5637 1.48593 51.51C1.45653 51.4564 1.41794 51.4049 1.39111 51.35C1.36429 51.2952 1.3442 51.2359 1.32 51.18C1.2958 51.1242 1.27042 51.0668 1.24889 51.01C1.22736 50.9532 1.20844 50.8976 1.18963 50.84C1.17081 50.7824 1.15829 50.7284 1.14222 50.67C1.12615 50.6117 1.10811 50.5489 1.09481 50.49C1.08152 50.4311 1.05926 50.3694 1.05926 50.31C1.05926 50.2506 1.03556 50.1898 1.03556 50.13C1.03556 50.0702 1.01185 50.01 1.01185 49.95C1.01185 49.89 1 49.8301 1 49.77C1 49.7099 1 49.6502 1 49.59C1 49.5299 1.01185 49.4701 1.01185 49.41C1.01185 49.35 1.0237 49.2899 1.0237 49.23C1.0237 49.1702 1.04741 49.1096 1.04741 49.05C1.04741 48.9905 1.07075 48.9391 1.08296 48.88C1.09518 48.8209 1.10351 48.7586 1.11852 48.7C1.13353 48.6415 1.14815 48.5879 1.16593 48.53C1.18369 48.4721 1.20469 48.4071 1.22519 48.35C1.24568 48.2929 1.27311 48.2363 1.2963 48.18C1.31948 48.1238 1.34158 48.0753 1.36741 48.02C1.39323 47.9647 1.42195 47.9041 1.45037 47.85C1.47879 47.7959 1.50237 47.7429 1.53333 47.69C1.56429 47.6371 1.59471 47.5816 1.62815 47.53C1.66158 47.4784 1.69896 47.4302 1.73481 47.38C1.77067 47.3298 1.81513 47.2787 1.85333 47.23C1.89153 47.1813 1.91953 47.1371 1.96 47.09C2.00046 47.0429 2.0477 46.9955 2.09037 46.95C2.13303 46.9046 2.17597 46.8637 2.22074 46.82C2.26551 46.7764 2.31616 46.7318 2.36296 46.69C2.40977 46.6482 2.45644 46.6099 2.50519 46.57C2.55392 46.5302 2.59682 46.4879 2.64741 46.45C2.69799 46.4122 2.74916 46.3758 2.80148 46.34C2.85381 46.3042 2.91344 46.2736 2.96741 46.24C3.02138 46.2064 3.07782 46.1714 3.13333 46.14C3.18885 46.1087 3.24231 46.0791 3.29926 46.05C2.62579 38.3602 11.3641 28.0509 24.5733 21C30.0594 18.0705 35.7747 15.9911 41.1422 14.93C41.1567 14.93 41.1633 14.92 41.1778 14.92C41.1923 14.92 41.2107 14.92 41.2252 14.92C41.2397 14.92 41.2581 14.92 41.2726 14.92C41.2872 14.92 41.2937 14.92 41.3081 14.92C41.3226 14.92 41.3411 14.92 41.3556 14.92C41.3701 14.92 41.3886 14.93 41.403 14.93C41.4174 14.93 41.4243 14.93 41.4385 14.93C41.4528 14.93 41.4718 14.94 41.4859 14.94C41.5001 14.94 41.5075 14.95 41.5215 14.95C41.5355 14.95 41.5552 14.96 41.5689 14.96C41.5827 14.96 41.591 14.98 41.6044 14.98C41.618 14.98 41.6386 14.99 41.6519 14.99C41.6651 14.99 41.6745 15.01 41.6874 15.01C41.7004 15.01 41.7104 15.03 41.723 15.03C41.7356 15.03 41.7462 15.05 41.7585 15.05C41.7708 15.05 41.7822 15.07 41.7941 15.07C41.806 15.07 41.8296 15.1 41.8296 15.1L41.8652 15.12L41.9007 15.15L41.9363 15.18C41.9363 15.18 41.96 15.2 41.96 15.21C41.96 15.22 41.9956 15.2295 41.9956 15.24C41.9956 15.2505 42.0193 15.2592 42.0193 15.27C42.0193 15.2809 42.043 15.2888 42.043 15.3C42.043 15.3112 42.0667 15.3285 42.0667 15.34C42.0667 15.3515 42.0904 15.3582 42.0904 15.37C42.0904 15.3818 42.1022 15.3978 42.1022 15.41C42.1022 15.4222 42.1259 15.4276 42.1259 15.44C42.1259 15.4524 42.1378 15.4674 42.1378 15.48C42.1378 15.4927 42.1496 15.5072 42.1496 15.52C42.1496 15.5328 42.1615 15.547 42.1615 15.56C42.1615 15.573 42.1733 15.5869 42.1733 15.6C42.1733 15.6132 42.1852 15.6267 42.1852 15.64C42.1852 15.6533 42.1852 15.6667 42.1852 15.68C42.1852 15.6933 42.197 15.7066 42.197 15.72C42.197 15.7334 42.197 15.7466 42.197 15.76C42.197 15.7735 42.197 15.7866 42.197 15.8C42.197 15.8135 42.197 15.8266 42.197 15.84C42.197 15.8534 42.1852 15.8667 42.1852 15.88C42.1852 15.8934 42.1852 15.9067 42.1852 15.92C42.1852 15.9333 42.1733 15.9468 42.1733 15.96C42.1733 15.9732 42.1615 15.987 42.1615 16C42.1615 16.013 42.1496 16.0272 42.1496 16.04C42.1496 16.0528 42.1378 16.0574 42.1378 16.07C42.1378 16.0827 42.1259 16.0977 42.1259 16.11C42.1259 16.1224 42.1022 16.1378 42.1022 16.15C42.1022 16.1622 42.0904 16.1682 42.0904 16.18C42.0904 16.1919 42.0667 16.2085 42.0667 16.22C42.0667 16.2316 42.043 16.2388 42.043 16.25C42.043 16.2613 42.0193 16.2792 42.0193 16.29C42.0193 16.3008 41.9956 16.3095 41.9956 16.32C41.9956 16.3305 41.96 16.34 41.96 16.35C41.96 16.3601 41.9363 16.38 41.9363 16.38L41.9007 16.41L41.8652 16.43L41.8415 16.46C41.8415 16.46 41.8178 16.48 41.8059 16.48C41.794 16.48 41.7708 16.51 41.7585 16.51C41.7463 16.51 41.7356 16.53 41.723 16.53C41.7104 16.53 41.7004 16.55 41.6874 16.55C41.6745 16.55 41.6651 16.56 41.6519 16.56C41.6386 16.56 41.618 16.58 41.6044 16.58C41.591 16.58 41.5826 16.59 41.5689 16.59C41.5551 16.59 41.5354 16.61 41.5215 16.61C36.3476 17.6364 30.822 19.6487 25.4978 22.49C13.0574 29.132 4.83538 38.6976 5.12444 45.54C5.23426 45.54 5.34648 45.53 5.4563 45.53C7.91317 45.53 9.90074 47.3681 9.90074 49.64ZM28.5911 4.97C28.5911 4.90422 28.603 4.83558 28.603 4.77C28.603 4.70441 28.6267 4.63524 28.6267 4.57C28.6267 4.50475 28.6376 4.44475 28.6504 4.38C28.6631 4.31524 28.6817 4.25411 28.6978 4.19C28.7139 4.12588 28.7377 4.06333 28.757 4C28.7764 3.93667 28.7937 3.87239 28.8163 3.81C28.839 3.7476 28.8616 3.68132 28.8874 3.62C28.9133 3.55867 28.9414 3.5001 28.9704 3.44C28.9994 3.37989 29.0331 3.31875 29.0652 3.26C29.0973 3.20125 29.1249 3.14726 29.16 3.09C29.1951 3.03274 29.2286 2.97564 29.2667 2.92C29.3047 2.86436 29.3443 2.80389 29.3852 2.75C29.4261 2.69611 29.4719 2.64201 29.5156 2.59C29.5592 2.53799 29.5997 2.49002 29.6459 2.44C29.6922 2.38998 29.7512 2.33791 29.8 2.29C29.8488 2.24209 29.891 2.19569 29.9422 2.15C29.9935 2.1043 30.0428 2.06336 30.0963 2.02C30.1499 1.97662 30.2065 1.93094 30.2622 1.89C30.318 1.84906 30.3822 1.80843 30.44 1.77C30.4978 1.73157 30.5581 1.69582 30.6178 1.66C30.6775 1.62417 30.734 1.59313 30.7956 1.56C30.8571 1.52687 30.922 1.49037 30.9852 1.46C31.0483 1.42963 31.1102 1.40754 31.1748 1.38C31.2394 1.35246 31.2985 1.32464 31.3644 1.3C31.4305 1.27536 31.4987 1.25168 31.5659 1.23C31.6331 1.20832 31.6992 1.18868 31.7674 1.17C31.8357 1.15132 31.9116 1.13563 31.9807 1.12C32.0499 1.10437 32.1124 1.09255 32.1822 1.08C32.2521 1.06745 32.3251 1.04 32.3956 1.04C32.466 1.04 32.538 1.02 32.6089 1.02C32.6797 1.02 32.7512 1 32.8222 1C32.8934 1 32.9644 1 33.0356 1C33.1068 1 33.1778 1 33.2489 1C33.32 1 33.3914 1.02 33.4622 1.02C33.5331 1.02 33.6051 1.04 33.6756 1.04C33.746 1.04 33.819 1.06745 33.8889 1.08C33.9588 1.09255 34.0213 1.10437 34.0904 1.12C34.1595 1.13563 34.2354 1.15132 34.3037 1.17C34.372 1.18868 34.438 1.20832 34.5052 1.23C34.5724 1.25168 34.6407 1.27536 34.7067 1.3C34.7727 1.32464 34.8317 1.35246 34.8963 1.38C34.9609 1.40754 35.0228 1.42963 35.0859 1.46C35.1491 1.49037 35.2141 1.52687 35.2756 1.56C35.3371 1.59313 35.3937 1.62417 35.4533 1.66C35.5131 1.69582 35.5733 1.73157 35.6311 1.77C35.6889 1.80843 35.7532 1.84905 35.8089 1.89C35.8646 1.93094 35.9094 1.97662 35.963 2.02C36.0165 2.06336 36.0777 2.1043 36.1289 2.15C36.1801 2.19569 36.2223 2.24209 36.2711 2.29C36.3199 2.33791 36.3671 2.38998 36.4133 2.44C36.4596 2.49002 36.5119 2.53798 36.5556 2.59C36.5992 2.64201 36.6332 2.69611 36.6741 2.75C36.715 2.80389 36.7546 2.86436 36.7926 2.92C36.8307 2.97564 36.876 3.03274 36.9111 3.09C36.9462 3.14726 36.9738 3.20125 37.0059 3.26C37.038 3.31875 37.0717 3.37989 37.1007 3.44C37.1297 3.5001 37.1579 3.55867 37.1837 3.62C37.2096 3.68132 37.2322 3.7476 37.2548 3.81C37.2775 3.87239 37.2947 3.93667 37.3141 4C37.3335 4.06333 37.3573 4.12588 37.3733 4.19C37.3895 4.25411 37.3962 4.31524 37.4089 4.38C37.4216 4.44475 37.4444 4.50475 37.4444 4.57C37.4444 4.63524 37.4681 4.70441 37.4681 4.77C37.4681 4.83558 37.48 4.90422 37.48 4.97C37.48 5.03147 37.48 5.0912 37.48 5.15C44.8478 8.6701 49.96 20.6799 49.96 34.56C49.96 40.2665 49.1019 45.743 47.4948 50.49C47.4948 50.504 47.483 50.5162 47.483 50.53C47.483 50.5438 47.4593 50.5565 47.4593 50.57C47.4593 50.5836 47.4474 50.5967 47.4474 50.61C47.4474 50.6233 47.4237 50.637 47.4237 50.65C47.4237 50.663 47.4 50.6773 47.4 50.69C47.4 50.7027 47.3763 50.7077 47.3763 50.72C47.3763 50.7323 47.3526 50.7481 47.3526 50.76C47.3526 50.7719 47.3289 50.7886 47.3289 50.8C47.3289 50.8115 47.2933 50.819 47.2933 50.83C47.2933 50.841 47.2696 50.8495 47.2696 50.86C47.2696 50.8705 47.2341 50.89 47.2341 50.89C47.2341 50.9 47.2104 50.92 47.1985 50.92C47.1866 50.92 47.1754 50.95 47.163 50.95C47.1506 50.95 47.1403 50.97 47.1274 50.97C47.1145 50.97 47.0933 51 47.08 51C47.0667 51 47.0582 51.02 47.0444 51.02C47.0308 51.02 47.0111 51.04 46.997 51.04C46.9829 51.04 46.9759 51.06 46.9615 51.06C46.9471 51.06 46.9288 51.07 46.9141 51.07C46.8994 51.07 46.8816 51.09 46.8667 51.09C46.8518 51.09 46.8463 51.1 46.8311 51.1C46.8159 51.1 46.7991 51.11 46.7837 51.11C46.7683 51.11 46.7518 51.12 46.7363 51.12C46.7209 51.12 46.7045 51.12 46.6889 51.12C46.6733 51.12 46.6571 51.13 46.6415 51.13C46.6258 51.13 46.6098 51.13 46.5941 51.13C46.5784 51.13 46.5624 51.13 46.5467 51.13C46.531 51.13 46.5148 51.12 46.4993 51.12C46.4837 51.12 46.4674 51.12 46.4519 51.12C46.4363 51.12 46.4198 51.11 46.4044 51.11C46.3891 51.11 46.3722 51.1 46.357 51.1C46.3419 51.1 46.3246 51.09 46.3096 51.09C46.2947 51.09 46.2888 51.07 46.2741 51.07C46.2594 51.07 46.2411 51.06 46.2267 51.06C46.2123 51.06 46.1934 51.04 46.1793 51.04C46.1652 51.04 46.1575 51.02 46.1437 51.02C46.13 51.02 46.1096 51 46.0963 51C46.083 51 46.0737 50.97 46.0607 50.97C46.0479 50.97 46.0377 50.95 46.0252 50.95C46.0128 50.95 46.0016 50.92 45.9896 50.92C45.9777 50.92 45.9541 50.89 45.9541 50.89C45.9541 50.89 45.9185 50.8705 45.9185 50.86C45.9185 50.8495 45.883 50.841 45.883 50.83C45.883 50.819 45.8593 50.8114 45.8593 50.8C45.8593 50.7886 45.8356 50.7719 45.8356 50.76C45.8356 50.7482 45.8 50.7423 45.8 50.73C45.8 50.7177 45.7763 50.7027 45.7763 50.69C45.7763 50.6773 45.7526 50.663 45.7526 50.65C45.7526 50.637 45.7407 50.6233 45.7407 50.61C45.7407 50.5967 45.717 50.5836 45.717 50.57C45.717 50.5565 45.7052 50.5438 45.7052 50.53C45.7052 50.5162 45.6933 50.504 45.6933 50.49C45.6933 50.476 45.6815 50.4542 45.6815 50.44C45.6815 50.4258 45.6696 50.4143 45.6696 50.4C45.6696 50.3857 45.6696 50.3744 45.6696 50.36C45.6696 50.3456 45.6578 50.3345 45.6578 50.32C45.6578 50.3055 45.6578 50.2845 45.6578 50.27C45.6578 50.2555 45.6578 50.2445 45.6578 50.23C45.6578 50.2155 45.6696 50.1944 45.6696 50.18C45.6696 50.1656 45.6696 50.1543 45.6696 50.14C45.6696 50.1257 45.6815 50.1143 45.6815 50.1C45.6815 50.0858 45.6933 50.0741 45.6933 50.06C45.6933 50.046 45.7052 50.0239 45.7052 50.01C45.7052 49.9962 45.717 49.9837 45.717 49.97C47.2663 45.3941 48.0993 40.0954 48.0993 34.56C48.0993 21.4898 43.4019 10.2491 36.9822 6.86C36.9539 6.91075 36.9298 6.96037 36.8993 7.01C36.8687 7.05963 36.8372 7.11159 36.8044 7.16C36.7717 7.2084 36.7327 7.25291 36.6978 7.3C36.6629 7.34711 36.6282 7.39433 36.5911 7.44C36.5541 7.48573 36.5117 7.52577 36.4726 7.57C36.4336 7.61429 36.3951 7.65728 36.3541 7.7C36.3131 7.74272 36.2785 7.78891 36.2356 7.83C36.1927 7.8711 36.138 7.91066 36.0933 7.95C36.0487 7.98947 36.0094 8.03241 35.963 8.07C35.9166 8.10771 35.8688 8.14423 35.8207 8.18C35.7726 8.21583 35.7282 8.24605 35.6785 8.28C35.6289 8.31395 35.5756 8.34799 35.5244 8.38C35.4733 8.41201 35.4229 8.44006 35.3704 8.47C35.3179 8.50001 35.2584 8.53206 35.2044 8.56C35.1507 8.588 35.0937 8.61419 35.0385 8.64C34.9835 8.66581 34.9288 8.68632 34.8726 8.71C34.8164 8.73374 34.7639 8.75851 34.7067 8.78C34.6495 8.80155 34.587 8.82071 34.5289 8.84C34.4708 8.85929 34.4219 8.88296 34.363 8.9C34.304 8.91704 34.2449 8.92522 34.1852 8.94C34.1256 8.95478 34.0558 8.9776 33.9956 8.99C33.9353 9.00247 33.8786 9.00991 33.8178 9.02C33.757 9.03015 33.7012 9.05 33.64 9.05C33.5788 9.05 33.5119 9.07 33.4504 9.07C33.3889 9.07 33.3342 9.08 33.2726 9.08C33.2109 9.08 33.1447 9.08 33.083 9.08C33.0212 9.08 32.9551 9.08 32.8933 9.08C32.8316 9.08 32.7772 9.07 32.7156 9.07C32.654 9.07 32.5873 9.06 32.5259 9.06C32.4646 9.06 32.4092 9.04 32.3481 9.04C32.2872 9.04 32.2191 9.02115 32.1585 9.01C32.098 8.99885 32.0408 8.98353 31.9807 8.97C31.9207 8.95647 31.8623 8.93579 31.803 8.92C31.7436 8.90421 31.6838 8.8881 31.6252 8.87C31.5667 8.85196 31.5051 8.84036 31.4474 8.82C31.3897 8.7997 31.3383 8.77255 31.2815 8.75C31.2248 8.72751 31.1712 8.70468 31.1156 8.68C31.0599 8.65532 31.0042 8.62681 30.9496 8.6C30.8952 8.57319 30.837 8.54894 30.7837 8.52C30.7305 8.49118 30.6816 8.46095 30.6296 8.43C30.5777 8.39912 30.5261 8.36295 30.4756 8.33C30.4252 8.29717 30.3705 8.26483 30.3215 8.23C30.2726 8.19523 30.2266 8.16671 30.1793 8.13C30.132 8.09335 30.0827 8.04846 30.037 8.01C29.9914 7.97154 29.9506 7.93022 29.9067 7.89C29.8628 7.84984 29.8184 7.81185 29.7763 7.77C29.7343 7.72815 29.6861 7.68341 29.6459 7.64C29.6058 7.59659 29.5774 7.55498 29.5393 7.51C29.5012 7.46508 29.4568 7.41636 29.4207 7.37C29.3847 7.32364 29.3481 7.27772 29.3141 7.23C29.2801 7.18226 29.251 7.13896 29.2193 7.09C29.1875 7.04102 29.154 6.99015 29.1244 6.94C29.0949 6.88985 29.0688 6.84125 29.0415 6.79C29.0142 6.73875 28.9834 6.68226 28.9585 6.63C28.9336 6.57774 28.91 6.52317 28.8874 6.47C28.8649 6.41683 28.8483 6.36399 28.8281 6.31C28.808 6.25601 28.7866 6.20472 28.7689 6.15C28.7512 6.09528 28.7367 6.04535 28.7215 5.99C28.7063 5.93465 28.6987 5.87589 28.6859 5.82C28.6733 5.76411 28.6504 5.70633 28.6504 5.65C28.6504 5.59366 28.6148 5.53667 28.6148 5.48C28.6148 5.42332 28.603 5.36691 28.603 5.31C28.603 5.25308 28.5911 5.19706 28.5911 5.14C28.5911 5.08294 28.5911 5.02711 28.5911 4.97ZM32.36 31.65C32.3085 31.6603 32.2569 31.6674 32.2059 31.68C32.1551 31.6926 32.1021 31.7051 32.0518 31.72C32.0017 31.7349 31.9472 31.7528 31.8978 31.77C31.8485 31.7872 31.8039 31.8006 31.7556 31.82C31.7072 31.8394 31.6606 31.8685 31.6133 31.89C31.5661 31.9116 31.5172 31.9263 31.4711 31.95C31.425 31.9737 31.3737 32.0043 31.3289 32.03C31.2842 32.0557 31.2419 32.0823 31.1985 32.11C31.1552 32.1377 31.1219 32.1603 31.08 32.19C31.0383 32.2197 30.9899 32.2585 30.9496 32.29C30.9095 32.3215 30.8696 32.3467 30.8311 32.38C30.7926 32.4133 30.7612 32.455 30.7244 32.49C30.6879 32.525 30.6526 32.5534 30.6178 32.59C30.5831 32.6266 30.5439 32.6618 30.5111 32.7C30.4784 32.7382 30.4471 32.7804 30.4163 32.82C30.3856 32.8596 30.3619 32.899 30.3333 32.94C30.3048 32.981 30.2768 33.0278 30.2504 33.07C30.2241 33.1122 30.1915 33.1567 30.1674 33.2C30.1434 33.2434 30.1181 33.2856 30.0963 33.33C30.0746 33.3744 30.0564 33.4146 30.037 33.46C30.0177 33.5054 30.0066 33.5539 29.9896 33.6C29.9727 33.6461 29.9567 33.6931 29.9422 33.74C29.9278 33.7869 29.9069 33.8325 29.8948 33.88C29.8829 33.9275 29.8711 33.9721 29.8711 34.02C29.8711 34.068 29.8474 34.1217 29.8474 34.17C29.8474 34.2184 29.8237 34.2615 29.8237 34.31C29.8237 34.3586 29.8119 34.4113 29.8119 34.46C29.8119 34.5087 29.8119 34.5513 29.8119 34.6C29.8119 34.6487 29.8237 34.7014 29.8237 34.75C29.8237 34.7987 29.8356 34.8516 29.8356 34.9C29.8356 34.9484 29.8593 34.992 29.8593 35.04C29.8593 35.0881 29.883 35.1324 29.883 35.18C29.883 35.2277 29.9049 35.283 29.9185 35.33C29.9322 35.3771 29.9498 35.4236 29.9659 35.47C29.982 35.5164 30.0067 35.5544 30.0252 35.6C30.0437 35.6456 30.0635 35.6953 30.0844 35.74C30.1054 35.7847 30.1204 35.8263 30.1437 35.87C30.167 35.9137 30.1892 35.9574 30.2148 36C30.2404 36.0427 30.27 36.0887 30.2978 36.13C30.3256 36.1715 30.3508 36.21 30.3807 36.25C30.4108 36.2901 30.4435 36.3313 30.4756 36.37C30.5077 36.4087 30.5482 36.4429 30.5822 36.48C30.6164 36.5172 30.6528 36.5544 30.6889 36.59C30.7249 36.6256 30.7578 36.6661 30.7956 36.7C30.8335 36.7339 30.8745 36.7579 30.9141 36.79C30.9537 36.8221 30.9913 36.8597 31.0326 36.89C31.0739 36.9203 31.1201 36.9516 31.163 36.98C31.2058 37.0084 31.2491 37.0336 31.2933 37.06C31.3376 37.0864 31.3781 37.1056 31.4237 37.13C31.4694 37.1544 31.519 37.1777 31.5659 37.2C31.6128 37.2223 31.6602 37.2499 31.7081 37.27C31.7562 37.2902 31.8014 37.3121 31.8504 37.33C31.8994 37.3479 31.9546 37.3643 32.0044 37.38C32.0544 37.3957 32.096 37.4066 32.1467 37.42C32.1973 37.4334 32.2495 37.4489 32.3007 37.46C32.3521 37.4711 32.403 37.49 32.4548 37.49C32.5067 37.49 32.5567 37.51 32.6089 37.51C32.6611 37.51 32.7223 37.52 32.7748 37.52C32.8274 37.52 32.8762 37.53 32.9289 37.53C32.9816 37.53 33.0303 37.53 33.083 37.53C33.1357 37.53 33.1963 37.53 33.2489 37.53C33.3015 37.53 33.3507 37.51 33.403 37.51C33.4554 37.51 33.5051 37.49 33.557 37.49C33.6091 37.49 33.6596 37.4803 33.7111 37.47C33.7627 37.4597 33.8143 37.4427 33.8652 37.43C33.9161 37.4174 33.9691 37.4049 34.0193 37.39C34.0695 37.3751 34.124 37.3572 34.1733 37.34C34.2227 37.3228 34.2672 37.3094 34.3156 37.29C34.3639 37.2706 34.4106 37.2515 34.4578 37.23C34.5051 37.2085 34.5539 37.1837 34.6 37.16C34.6461 37.1364 34.6857 37.1157 34.7304 37.09C34.7752 37.0643 34.8292 37.0378 34.8726 37.01C34.916 36.9823 34.9493 36.9497 34.9911 36.92C35.033 36.8904 35.0813 36.8616 35.1215 36.83C35.1617 36.7985 35.2015 36.7633 35.24 36.73C35.2785 36.6967 35.3101 36.665 35.3467 36.63C35.3834 36.595 35.4186 36.5566 35.4533 36.52C35.4882 36.4834 35.5272 36.4482 35.56 36.41C35.5928 36.3718 35.6241 36.3296 35.6548 36.29C35.6856 36.2504 35.7093 36.211 35.7378 36.17C35.7664 36.129 35.7945 36.0922 35.8207 36.05C35.8472 36.0078 35.8797 35.9633 35.9037 35.92C35.9278 35.8767 35.9412 35.8344 35.963 35.79C35.9847 35.7456 36.0147 35.6954 36.0341 35.65C36.0534 35.6047 36.0645 35.5562 36.0815 35.51C36.0984 35.4639 36.1144 35.4169 36.1289 35.37C36.1434 35.3231 36.1644 35.2775 36.1763 35.23C36.1883 35.1825 36.2 35.138 36.2 35.09C36.2 35.0421 36.2237 34.9984 36.2237 34.95C36.2237 34.9018 36.2474 34.8486 36.2474 34.8C36.2474 34.7514 36.2474 34.6987 36.2474 34.65C36.2474 34.6013 36.2593 34.5587 36.2593 34.51C36.2593 34.4613 36.2474 34.4087 36.2474 34.36C36.2474 34.3114 36.2356 34.2684 36.2356 34.22C36.2356 34.1716 36.2119 34.1181 36.2119 34.07C36.2119 34.0219 36.1881 33.9777 36.1881 33.93C36.1881 33.8824 36.1544 33.8371 36.1407 33.79C36.1272 33.743 36.1213 33.6964 36.1052 33.65C36.0891 33.6036 36.0645 33.5556 36.0459 33.51C36.0274 33.4644 36.0077 33.4147 35.9867 33.37C35.9657 33.3253 35.9507 33.2837 35.9274 33.24C35.9041 33.1963 35.8701 33.1526 35.8444 33.11C35.8188 33.0674 35.8012 33.0214 35.7733 32.98C35.7456 32.9387 35.7085 32.9001 35.6785 32.86C35.6486 32.82 35.6277 32.7787 35.5956 32.74C35.5635 32.7013 35.523 32.6672 35.4889 32.63C35.4549 32.5928 35.4183 32.5556 35.3822 32.52C35.3462 32.4844 35.3135 32.4539 35.2756 32.42C35.2378 32.3861 35.1967 32.3521 35.157 32.32C35.1175 32.2879 35.0798 32.2503 35.0385 32.22C34.9973 32.1897 34.951 32.1684 34.9081 32.14C34.8653 32.1116 34.8221 32.0764 34.7778 32.05C34.7335 32.0236 34.6931 32.0044 34.6474 31.98C34.6018 31.9556 34.5521 31.9323 34.5052 31.91C34.4583 31.8877 34.411 31.8601 34.363 31.84C34.315 31.8199 34.2698 31.8079 34.2207 31.79C34.1717 31.7721 34.1165 31.7557 34.0667 31.74C34.0168 31.7243 33.9751 31.7034 33.9244 31.69C33.8738 31.6766 33.8217 31.6711 33.7704 31.66C33.7191 31.649 33.6682 31.63 33.6163 31.63C33.5645 31.63 33.5027 31.6 33.4504 31.6C33.3981 31.6 33.3489 31.59 33.2963 31.59C33.2438 31.59 33.1949 31.58 33.1422 31.58C33.0896 31.58 33.0409 31.58 32.9881 31.58C32.9354 31.58 32.8748 31.58 32.8222 31.58C32.7697 31.58 32.7205 31.6 32.6681 31.6C32.6158 31.6 32.5661 31.62 32.5141 31.62C32.462 31.62 32.4115 31.6397 32.36 31.65Z" stroke="rgba(0, 0, 0, 1)" stroke-width="2"      fill="#0D0D0D" >
</path>
</svg>
