<?xml version="1.0" standalone="no"?><!DOCTYPE svg PUBLIC "-//W3C//DTD SVG 1.1//EN" "http://www.w3.org/Graphics/SVG/1.1/DTD/svg11.dtd"><svg t="1711941173452" class="icon" viewBox="0 0 1024 1024" version="1.1" xmlns="http://www.w3.org/2000/svg" p-id="4539" width="32" height="32" xmlns:xlink="http://www.w3.org/1999/xlink"><path d="M480 960h-32v-32h32v32z m128 0h-64v-32h64v32z m-64-64h-64v-32h64v32z m32 32h-128v-32h128v32z m256 32h-64v-32h64v32z m-64-64h96v32h-96v-32z m64 96h-256v-32h256v32z m-224 0h224v32h-224v-32zM128 320V288h32v32H128z m32 96H64v-32h96v32z m-64 0V288h32v128H96z m-32-64V288h32v64H64z m192 640h160v32H256v-32z m192 0H256v-32h192v32z m-224 32v-128h32v128H224z m-32 0v-128h32v128H192z m-32-96v-64h32v64H160z m0-192v-128h32v128H160z m-64 192v-192h32v192H96z m32 0V608h32v320H128z m-32-288v-64h32v64H96z m-32-32v-96h32v96H64z m-32-32v-224h32v224H32z m-32-96v-128h32v128H0z m800 192v-32h32v32h-32z m32 64v-96h32v96h-32z m64 192v-192h32v192h-32z m-32 16V608h32v336h-32z m32-304v-64h32v64h-32z m32-32v-64h32v64h-32z m64-128v-128h32v128h-32z m-32 96v-224h32v224h-32z m-32-224v-32h32v32h-32z m32 64h-32v-32h32v32z m-64 0v-96h32v96h-32z m64-96h-96V288h96v32z m-32-32h-192V256h192v32z m-224 0V128h32v160h-32z m-32 32V128h32v192h-32z m32-192h-64V96h64v32z m-160 0h-64V96h64v32z m-224 0v128H288V128h32zM96 256h224v32H96V256z m224 64V128h32v192h-32z m0-224h64v32h-64V96z m352 0H352V64h320v32z m-32-32h-256V32h256v32z" fill="#010101" p-id="4540"></path><path d="M480 576h64v32h-64v-32z m96 0h-128v-32h128v32z m0-32h-128v-32h128v32z m-32-32h-64v-32h64v32z" fill="#C40852" p-id="4541"></path><path d="M736 416h-64v-32h64v32z m-192-64h-64v-32h64v32z m-192 64h-32v-32h32v32z m416 160h-64v-32h64v32z m-32 160h-64v-32h64v32z m-192 64h-64v-32h64v32z m-192-64h-32v-32h32v32z m-96-192h64v32H256v-32z m128 64v-96h32v96h-32z m64-128h32v32h-32v-32z m0 0v160h-32v-160h32z m0 192v-96h32v96h-32z m64-64v64h-32v-64h32z m0 64v-64h32v64h-32z m64-96v96h-32v-96h32z m0 64v-128h32v128h-32z m32-32v-96h32v96h-32z m0-96h-64v-32h64v32z m0-32h-160v-32h160v32z" fill="#EB4587" p-id="4542"></path><path d="M608 480v-32h32v32h-32z m96-32h-96v-32h96v32z m-32-64v96h-32v-96h32z m-32 192v-64h32v64h-32z m64-64v64h-32v-64h32z m0 160h-96v-32h96v32z m-32-64v96h-32v-96h32z m-128 128h-64v-32h64v32z m0-32h-64v-32h64v32z m-160 0h-32v-32h32v32z m-32-96h64v32h-64v-32z m64 64h-96v-32h96v32z m-96-160h64v32h-64v-32z m32-64h64v32h-64v-32z m64 0h-64v-32h64v32z m128-32h-64v-32h64v32z" fill="#FFF1F6" p-id="4543"></path><path d="M320 448v-32h32v32h-32z m160-96h64v32h-64v-32z m-160 256v-64h32v64h-32z m64-64v64h-32v-64h32z" fill="#F7CCDF" p-id="4544"></path><path d="M96 448v-32h32v32H96zM416 96h64v32h-64V96z m-96 256v-32h32v32h-32z m32-32V160h32v160h-32z m160-128V160h32v32h-32z m-32 96h64v32h-64V288z m384 64v-32h32v32h-32z m-192-192v160h-32V160h32z m32 160v32h-32v-32h32z m-224 96v32h-32v-32h32z m224 96h64v32h-64v-32z m224-96v32h-32v-32h32z m32 32v32h-32v-32h32z m-128 160v-32h32v32h-32z m64-64v-32h32v32h-32z m-64 320v-96h32v96h-32z m-64-224v-32h32v32h-32zM288 416v-64h32v64H288z m-32 224H224v-32h32v32z m-96-64h32v32H160v-32z m96-64h64v32H256v-32zM160 832v-32h32v32H160z m32-96v-32h32v32H192z m128-64v64H288v-64h32z m-32 192v96H256v-96h32z m32 64h64v32h-64v-32z m160-128h64v32h-64v-32z m96 96h32v32h-32v-32z m64 32h64v32h-64v-32z m96 32v-96h32v96h-32z m-32-288h32v32h-32v-32z" fill="#CD6C92" p-id="4545"></path><path d="M544 896v-32h32v32h-32zM160 864v-32h32v32H160z m0-64v-64h32v64H160z m64-160h32v32H224v-32z m704-192v-32h32v32h-32z m-64 0v-32h32v32h-32z m-32-128h-96V288h96v32z m-192-192h-32V96h32v32z m-64 0h-32V96h32v32z m-160 0h-32V96h32v32z m-128 192H192V288h96v32z m-160 64v-64h32v64H128z m-64 96v-64h32v64H64z m64-32v-32h32v32H128z" fill="#7F5D6B" p-id="4546"></path><path d="M672 160h-32V128h32v32z m-128 0h-64V128h64v32z m-160 0h-32V128h32v32z m-64 128v32H288V288h32zM192 288v32H160V288h32z m-96 64v32H64v-32h32z m0 128v32H64v-32h32z m32 64v32H96v-32h32z m32 32v32H128v-32h32z m64 32v96H192v-96h32zM736 288v32h-32V288h32z m128 0v32h-32V288h32z m32 64v64h-32v-64h32z m64 0v32h-32v-32h32z m0 128v64h-32v-64h32z m-32 64v32h-32v-32h32z m-32 32v32h-32v-32h32z m-32 64h-64v-32h64v32z m-64 0v32h-32v-32h32z m32 32v32h-32v-32h32z m32 64v32h-32v-32h32z m-256 224v-32h32v32h-32z m256-64h-96v-32h96v32z m-320-32h-64v-32h64v32z m-64 0v32h-32v-32h32z m-32 32v32h-32v-32h32z m0 64h-64v-32h64v32z m-256-96h64v32H192v-32z" fill="#CD6D93" p-id="4547"></path><path d="M416 672v256h-32v-256h32z m-96 32v-32h32v32h-32z m0-64v-32h32v32h-32z m-32 32v-96h32v96H288z m64-192h-32v-32h32v32z m32 32h-64v-32h64v32z m-96 0v-96h32v96H288z m0-160v-32h32v32H288z m-32 160v-192h32v192H256z m-32 96v-288h32v288H224z m0-288v288H192v-288h32z m-64 256v-256h32v256H160z m0-128v128H128v-128h32z m-32 0v96H96v-96h32z m64 416v-128h32v128H192z m64-192v192H224v-192h32z m32-96v288H256v-288h32z m32 160v224H288v-224h32z m0 192v-192h32v192h-32z m64-224v224h-32v-224h32z m64-64v256h-32v-256h32z m0 224v-192h32v192h-32z m128-192v32h-32v-32h32z m0 64v128h-32v-128h32z m96 192v-192h32v192h-32z m0-224v224h-32v-224h32z m-64 224v-256h32v256h-32z m-32-32v-256h32v256h-32z m128-256h-32v-32h32v32z m-64 0h-32v-32h32v32z m0-64h64v32h-64v-32z m96 0v96h-32v-96h32z m0 160v224h-32v-224h32z m0 128v-288h32v288h-32z m64-192v192h-32v-192h32z m0 192v-160h32v160h-32z m-192-384h64v32h-64v-32z m96-32v64h-32v-64h32z m0 64v-96h32v96h-32z m32 0v-128h32v128h-32z m64-128v224h-32v-224h32z m0 224v-224h32v224h-32z m64-224v192h-32v-192h32z m0 192v-128h32v128h-32z m64-128v64h-32v-64h32z m-64-64h-224v-32h224v32z m0-32h-160v-32h160v32z m-192 0h-32v-32h32v32z m-192 64h128v32h-128v-32z m128 0V128h32v288h-32z m0-320v320h-32V96h32z m-64 320V128h32v288h-32z m-32-128V192h32v96h-32z m-32 0V160h32v128h-32z m-32 128V128h32v288h-32z m0-288v320h-32V128h32z m-64 288V128h32v288h-32z m-32-32v-64h32v64h-32z m-32 0v-32h32v32h-32z" fill="#F594BF" p-id="4548"></path><path d="M352 416v-32h32v32h-32z m64 64v-32h32v32h-32z m-32 32v-32h32v32h-32z m320 160v32h-32v-32h32z m-224 64h64v32h-64v-32z m64 0v-32h32v32h-32z" fill="#ED7DAB" p-id="4549"></path></svg>