<?xml version="1.0" standalone="no"?><!DOCTYPE svg PUBLIC "-//W3C//DTD SVG 1.1//EN" "http://www.w3.org/Graphics/SVG/1.1/DTD/svg11.dtd"><svg t="1711701348239" class="icon" viewBox="0 0 1024 1024" version="1.1" xmlns="http://www.w3.org/2000/svg" p-id="6555" xmlns:xlink="http://www.w3.org/1999/xlink" width="128" height="128"><path d="M0 224v576h1024V224H0z m64 64h896v448H64V288z m96 96v256h64v-96h32v96h64v-256H256v96H224v-96H160z m192 0v64h32v192h64v-192h32v-64h-128z m160 0v256h64v-148.992l6.016 8 25.984 33.984 26.016-33.984 5.984-8V640h64v-256h-64l-10.016 12.992-21.984 28.992-22.016-28.992L576 384h-64z m224 0v256h128v-64h-64v-192h-64z" p-id="6556"></path></svg>