<svg xmlns="http://www.w3.org/2000/svg" xmlns:xlink="http://www.w3.org/1999/xlink" width="53" height="53" viewBox="0 0 53 53" fill="none">
<path     fill="#FFFFFF"  d="M0 53L53 53L53 0L0 0L0 53Z">
</path>
<path d="M3.3125 3.3125L3.3125 49.6875L49.6875 49.6875L49.6875 3.3125L3.3125 3.3125ZM28.5496 39.4808C28.5496 43.9941 25.8996 46.0541 22.0385 46.0541C18.55 46.0541 16.5314 44.2529 15.4963 42.0687L19.0469 39.926C19.7301 41.1371 20.3512 42.1619 21.8521 42.1619C23.2807 42.1619 24.1916 41.6029 24.1916 39.4187L24.1916 24.6057L28.5496 24.6057L28.5496 39.4808ZM38.8598 46.0541C34.8123 46.0541 32.1934 44.1287 30.9201 41.6029L34.4707 39.5533C35.4023 41.075 36.6238 42.2033 38.7666 42.2033C40.5678 42.2033 41.7271 41.3027 41.7271 40.0502C41.7271 38.5596 40.5471 38.0316 38.5492 37.1517L37.4623 36.6859C34.3154 35.3506 32.2348 33.6633 32.2348 30.1127C32.2348 26.8416 34.7295 24.3572 38.6113 24.3572C41.3855 24.3572 43.373 25.3199 44.8015 27.8457L41.4062 30.0195C40.6609 28.6842 39.8535 28.1562 38.601 28.1562C37.3277 28.1562 36.5203 28.9637 36.5203 30.0195C36.5203 31.3238 37.3277 31.8517 39.2014 32.6695L40.2883 33.1353C43.9941 34.7191 46.0748 36.3443 46.0748 39.9881C46.0748 43.901 42.99 46.0541 38.8598 46.0541Z"   fill="#FFCC00" >
</path>
</svg>
