<svg xmlns="http://www.w3.org/2000/svg" xmlns:xlink="http://www.w3.org/1999/xlink" width="64" height="64" viewBox="0 0 64 64" fill="none">
<path d="M51.627 52.3281L12.3731 52.3281C7.79349 52.3281 3.96155 48.5896 3.96155 44.01L3.96155 19.9903C3.96155 15.4107 7.69999 11.6722 12.3731 11.6722L51.627 11.6722C56.2066 11.6722 60.0385 15.4107 60.0385 19.9903L60.0385 44.1034C60.0385 48.6831 56.3001 52.3281 51.627 52.3281ZM57.6085 19.9903C57.6085 16.7191 54.8982 14.1022 51.627 14.1022L12.3731 14.1022C9.10192 14.1022 6.39155 16.7192 6.39155 19.9903L6.39155 44.1034C6.39155 47.3746 9.10192 49.9915 12.3731 49.9915L51.627 49.9915C54.8982 49.9915 57.6085 47.3746 57.6085 44.1034L57.6085 19.9903ZM53.2159 41.1126C53.6832 40.6453 53.6832 39.8976 53.2159 39.4303L42.935 29.1496L53.0289 19.523C53.4962 19.0557 53.4962 18.308 53.0289 17.8407C52.5616 17.3734 51.8139 17.3734 51.3466 17.8407L32 36.3461L12.4666 17.8407C11.9993 17.3734 11.2516 17.3734 10.7843 17.8407C10.317 18.308 10.317 19.0557 10.7843 19.523L20.9716 29.243L10.6908 39.4304C10.2235 39.8977 10.2235 40.6454 10.6908 41.1127C10.9712 41.2996 11.2515 41.4866 11.5319 41.4866C11.8123 41.4866 12.1862 41.3931 12.373 41.1127L22.6538 30.8319L31.0654 38.8696C31.2523 39.0565 31.6261 39.2434 31.9065 39.2434C32.1869 39.2434 32.4672 39.15 32.7476 38.8696L41.1592 30.8319L51.4399 41.1127C51.7203 41.3931 52.0007 41.4866 52.281 41.4866C52.7485 41.4865 53.0289 41.3931 53.2159 41.1126Z" stroke="rgba(0, 0, 0, 1)" stroke-width="2"      fill="#272636" >
</path>
</svg>
