<?xml version="1.0" standalone="no"?><!DOCTYPE svg PUBLIC "-//W3C//DTD SVG 1.1//EN" "http://www.w3.org/Graphics/SVG/1.1/DTD/svg11.dtd"><svg t="1711722450199" class="icon" viewBox="0 0 1024 1024" version="1.1" xmlns="http://www.w3.org/2000/svg" p-id="4272" xmlns:xlink="http://www.w3.org/1999/xlink" width="128" height="128"><path d="M814 468.6c-24.1 38.4-61.7 66.5-105.4 78.7-1.1 0.3-2.3 0.7-3.4 1-6.9 2-14 3.1-21.2 3.2-31.2 0-48.9-21.1-39.4-47.1 8.7-20.5 26-36.1 47.3-42.6 33.3-10 56.7-39.8 58.5-74.5 0-44.9-43.7-81.3-97.5-81.3-53.9 0-97.6 36.4-97.6 81.3v249.3c-1.1 59.6-34.3 113.9-86.7 142.2-29.7 16.9-63.4 25.8-97.6 25.7-101.6 0-184.2-75.4-184.2-168 0.1-28.7 8.1-56.8 23.1-81.3 24.2-38.6 62-66.8 106-78.9h0.1c7.6-2.4 15.5-3.6 23.4-3.7 31.4 0 49.1 21.2 39.6 47.4-8.5 19.1-24.4 34-44.1 41.1-2.4 0.8-4.8 1.7-7.1 2.7-31.2 10.9-52.7 39.7-54.3 72.8 0 44.9 43.6 81.3 97.5 81.3s97.6-36.4 97.6-81.3V387.4c1.1-59.6 34.3-113.9 86.7-142.2 29.7-16.9 63.3-25.8 97.5-25.7 101.6 0 184.2 75.3 184.2 168 0 28.6-8 56.7-23 81.1zM512 0C229.2 0 0 229.2 0 512s229.2 512 512 512 512-229.1 512-512S794.9 0 512 0z" p-id="4273" data-spm-anchor-id="a313x.search_index.0.i0.468f3a81Vq0v7c" class="selected" fill="#010101"></path></svg>