<?xml version="1.0" standalone="no"?><!DOCTYPE svg PUBLIC "-//W3C//DTD SVG 1.1//EN" "http://www.w3.org/Graphics/SVG/1.1/DTD/svg11.dtd"><svg t="1711702831304" class="icon" viewBox="0 0 1024 1024" version="1.1" xmlns="http://www.w3.org/2000/svg" p-id="16443" xmlns:xlink="http://www.w3.org/1999/xlink" width="128" height="128"><path d="M128 981.333333c-46.933333 0-85.333333-38.4-85.333333-85.333333V128c0-46.933333 38.4-85.333333 85.333333-85.333333h768c46.933333 0 85.333333 38.4 85.333333 85.333333v768c0 46.933333-38.4 85.333333-85.333333 85.333333H128zM128 149.333333v725.333334c0 12.8 8.533333 21.333333 21.333333 21.333333h725.333334c12.8 0 21.333333-8.533333 21.333333-21.333333v-725.333334c0-12.8-8.533333-21.333333-21.333333-21.333333h-725.333334c-12.8 0-21.333333 8.533333-21.333333 21.333333z m85.333333 601.6V298.666667h179.2c38.4-4.266667 72.533333 12.8 98.133334 38.4 21.333333 29.866667 34.133333 64 34.133333 98.133333 0 93.866667-46.933333 140.8-145.066667 140.8H328.533333v174.933333H213.333333z m115.2-256h21.333334c29.866667 0 46.933333-17.066667 46.933333-55.466666S379.733333 384 349.866667 384h-21.333334v110.933333z m213.333334 140.8H640c0 12.8 0 25.6 8.533333 34.133334 4.266667 8.533333 12.8 12.8 25.6 12.8 8.533333 0 17.066667-4.266667 25.6-8.533334 4.266667-4.266667 8.533333-12.8 8.533334-21.333333 0-17.066667-17.066667-25.6-42.666667-38.4-25.6-8.533333-55.466667-17.066667-76.8-34.133333-29.866667-17.066667-42.666667-51.2-42.666667-85.333334 0-29.866667 12.8-55.466667 34.133334-76.8 25.6-21.333333 59.733333-34.133333 98.133333-29.866666 85.333333 0 128 34.133333 128 106.666666h-98.133333c0-25.6-8.533333-38.4-29.866667-38.4-17.066667 0-29.866667 8.533333-29.866667 25.6 0 17.066667 17.066667 25.6 42.666667 34.133334 25.6 8.533333 55.466667 17.066667 76.8 29.866666 29.866667 17.066667 46.933333 51.2 42.666667 85.333334 0 29.866667-12.8 59.733333-34.133334 81.066666-29.866667 21.333333-64 34.133333-102.4 34.133334-89.6 4.266667-132.266667-34.133333-132.266666-110.933334z" p-id="16444" fill="#010101"></path></svg>