<svg xmlns="http://www.w3.org/2000/svg" xmlns:xlink="http://www.w3.org/1999/xlink" width="64" height="64" viewBox="0 0 64 64" fill="none">
<path d="M32.5 16.24C24.3682 16.24 19.2818 19.9077 17.25 27.2384C20.3 23.5754 23.8568 22.1941 27.925 23.1134C30.243 23.6367 31.9041 25.1547 33.7435 26.8377C36.7231 29.572 40.186 32.74 47.75 32.74C55.8818 32.74 60.9682 29.0723 63 21.7416C59.95 25.4046 56.3932 26.7858 52.325 25.8666C50.0023 25.3433 48.3459 23.8253 46.5065 22.1423C43.5269 19.408 40.064 16.24 32.5 16.24ZM17.25 32.74C9.11823 32.74 4.03177 36.4077 2 43.7384C5.05 40.0754 8.60677 38.6941 12.675 39.6134C14.993 40.1367 16.6541 41.6547 18.4935 43.3377C21.4731 46.072 24.936 49.24 32.5 49.24C40.6318 49.24 45.7182 45.5723 47.75 38.2416C44.7 41.9046 41.1432 43.2858 37.075 42.3666C34.757 41.8433 33.0959 40.3253 31.2565 38.6423C28.2769 35.908 24.814 32.74 17.25 32.74Z"   fill="#000000" >
</path>
</svg>
