<?xml version="1.0" standalone="no"?><!DOCTYPE svg PUBLIC "-//W3C//DTD SVG 1.1//EN" "http://www.w3.org/Graphics/SVG/1.1/DTD/svg11.dtd"><svg t="1711946048715" class="icon" viewBox="0 0 1026 1024" version="1.1" xmlns="http://www.w3.org/2000/svg" p-id="15610" width="64.125" height="64" xmlns:xlink="http://www.w3.org/1999/xlink"><path d="M718.933333 352h-23.466666c-32-147.2-177.066667-256-345.6-256-192 0-349.866667 142.933333-349.866667 320 0 66.133333 21.333333 130.133333 64 183.466667V768c0 32 19.2 42.666667 25.6 44.8 4.266667 2.133333 8.533333 2.133333 14.933333 2.133333 10.666667 0 21.333333-4.266667 36.266667-17.066666l85.333333-85.333334c68.266667 23.466667 147.2 27.733333 219.733334 8.533334 49.066667 87.466667 153.6 147.2 275.2 147.2 34.133333 0 66.133333-4.266667 98.133333-12.8l66.133333 57.6c12.8 10.666667 25.6 14.933333 34.133334 14.933333 8.533333 0 12.8-2.133333 17.066666-4.266667 8.533333-4.266667 25.6-14.933333 25.6-44.8v-108.8c40.533333-44.8 64-102.4 64-160-2.133333-140.8-138.666667-258.133333-307.2-258.133333z m-298.666666 311.466667c-64 12.8-130.133333 8.533333-189.866667-17.066667-12.8-4.266667-25.6-2.133333-34.133333 6.4L128 723.2v-134.4c0-8.533333-2.133333-14.933333-6.4-21.333333-38.4-42.666667-57.6-96-57.6-151.466667 0-140.8 130.133333-256 288-256 136.533333 0 253.866667 87.466667 281.6 202.666667-125.866667 32-219.733333 130.133333-219.733333 249.6 0 17.066667 2.133333 34.133333 6.4 51.2z m484.266666 72.533333c-6.4 6.4-8.533333 14.933333-8.533333 23.466667v83.2l-51.2-44.8c-6.4-4.266667-12.8-8.533333-21.333333-8.533334-4.266667 0-6.4 0-10.666667 2.133334-29.866667 10.666667-61.866667 14.933333-93.866667 14.933333-132.266667 0-241.066667-87.466667-241.066666-196.266667s108.8-196.266667 241.066666-196.266666c132.266667 0 238.933333 87.466667 238.933334 196.266666 2.133333 46.933333-17.066667 89.6-53.333334 125.866667z" fill="#212121" p-id="15611"></path><path d="M800 576m-32 0a32 32 0 1 0 64 0 32 32 0 1 0-64 0Z" fill="#212121" p-id="15612"></path><path d="M640 576m-32 0a32 32 0 1 0 64 0 32 32 0 1 0-64 0Z" fill="#212121" p-id="15613"></path><path d="M465.066667 366.933333m-46.933334 0a46.933333 46.933333 0 1 0 93.866667 0 46.933333 46.933333 0 1 0-93.866667 0Z" fill="#212121" p-id="15614"></path><path d="M273.066667 366.933333m-46.933334 0a46.933333 46.933333 0 1 0 93.866667 0 46.933333 46.933333 0 1 0-93.866667 0Z" fill="#212121" p-id="15615"></path></svg>